<svg xmlns="http://www.w3.org/2000/svg" width="1600" height="74" viewBox="0 0 1600 74">
    <path id="Rectangle_1404" data-name="Rectangle 1404" d="M0,0H1600a10,10,0,0,1,10,10V74a0,0,0,0,1,0,0H0a0,0,0,0,1,0,0V10A10,0,0,0,1,0,0Z" fill="#016060" />

    <svg xmlns="http://www.w3.org/2000/svg" width="1598.372" height="68.908" viewBox="0 0 1598.372 68.908">
        <g id="symbols" transform="translate(-4.241 -3.979)">
            <path id="Path_1768" data-name="Path 1768" d="M353.279,545.419a11.819,11.819,0,0,1,23.638,0" transform="translate(-203.707 183.228) rotate(-68)" fill="none" stroke="#fcfcfc" stroke-linecap="round" stroke-linejoin="round" stroke-width="2.5" opacity="0.7" />
            <path xmlns="http://www.w3.org/2000/svg" id="Union_34" data-name="Union 34" d="M3952-3900.57h12.406l-6.313,7.979Zm0,0V-3929h12.4v28.43Z" transform="translate(-5037.769 -8.222) rotate(45)" fill="none" stroke="#fff" stroke-linecap="round" stroke-linejoin="round" stroke-width="2" opacity="0.7" />

            <g id="Group_1264" data-name="Group 1264" transform="matrix(0.966, -0.259, 0.259, 0.966, -40.211, -515.218)" opacity="0.702">
                <path id="Union_41" data-name="Union 41" d="M0,15.772v-7.7s7.314-1.109,7.314,3.7c0,3.606-4.113,4.056-6.17,4.056C.458,15.822,0,15.772,0,15.772ZM0,.05s7.314-.8,7.314,4.006S0,7.754,0,7.754V.05Z" transform="translate(599.934 723.657)" fill="none" stroke="#fff" stroke-linecap="round" stroke-linejoin="round" stroke-width="2" opacity="0.9" />
                <g id="Group_1264-2" data-name="Group 1264" transform="translate(612.361 723.56)" opacity="0.9">
                    <path id="Path_1878" data-name="Path 1878" d="M-3600.611,4623.29s-.325,8.14,5.857,8.164,6.357-4.115,6.357-4.115" transform="translate(3600.614 -4615.439)" fill="none" stroke="#fff" stroke-linecap="round" stroke-linejoin="round" stroke-width="2" />
                    <path id="Path_1879" data-name="Path 1879" d="M-3600.611,4631.454s-.325-8.14,5.857-8.164,6.357,4.115,6.357,4.115" transform="translate(3600.614 -4623.291)" fill="none" stroke="#fff" stroke-linecap="round" stroke-linejoin="round" stroke-width="2" />
                </g>
                <g xmlns="http://www.w3.org/2000/svg">
                    <path xmlns="http://www.w3.org/2000/svg" id="Union_43" data-name="Union 43" d="M5.333,0l5.332,15.822Zm0,0L0,15.823ZM2.249,9.531h0Z" transform="translate(584.155 723.657)" fill="none" stroke="#fff" stroke-linejoin="round" stroke-width="2" opacity="0.9" />
                    <path xmlns="http://www.w3.org/2000/svg" id="Path_1861" data-name="Path 1861" d="M2.579,1.349h6.8" transform="translate(584.155 733.757)" fill="none" stroke="#fff" stroke-linejoin="round" stroke-width="2" opacity="0.7" />
                </g>
            </g>
            <g id="Group_1265" data-name="Group 1265" transform="translate(179.373 -56.097) rotate(-45)" opacity="0.7">
                <path id="Path_1862" data-name="Path 1862" d="M-3710.944,4316.935v-9.217s10.02-.029,10.02-8.779-10.02-8.366-10.02-8.366-8.708.085-9.043,8.366" transform="translate(3957 -3924)" fill="none" stroke="#fff" stroke-linecap="round" stroke-linejoin="round" stroke-width="2.5" />
                <path id="Path_1863" data-name="Path 1863" d="M285.4,560.641a3.256,3.256,0,1,1-3.256-3.256A3.256,3.256,0,0,1,285.4,560.641Z" transform="translate(-36.31 -160.352)" fill="none" stroke="#fcfcfc" stroke-linecap="round" stroke-linejoin="round" stroke-width="2" />
            </g>
            <path id="Union_45" data-name="Union 45" d="M3952-3908.763v-9.885s9.384-1.423,9.384,4.744c0,4.626-5.278,5.2-7.917,5.2C3952.587-3908.7,3952-3908.763,3952-3908.763Zm0-20.172s9.384-1.029,9.384,5.14-9.384,4.745-9.384,4.745v-9.885Z" transform="translate(-3593.767 3934)" fill="none" stroke="#fff" stroke-linecap="round" stroke-linejoin="round" stroke-width="2" opacity="0.7" />
            <path id="Path_1893" data-name="Path 1893" d="M290.185,563.031a5.647,5.647,0,1,1-5.647-5.646A5.647,5.647,0,0,1,290.185,563.031Z" transform="translate(560.206 -549.539)" fill="none" stroke="#fcfcfc" stroke-linecap="round" stroke-linejoin="round" stroke-width="2" opacity="0.7" />
            <g id="Group_1280" data-name="Group 1280" transform="translate(-389.199 -145.791) rotate(-31)" opacity="0.7">
                <path id="Path_1862-2" data-name="Path 1862" d="M-3712.537,4310.559s1.452-4.583,3.3-11.6-1.81-6.88-3.667-6.88-5.581.98-3.762,6.88,4.131,11.6,4.131,11.6" transform="translate(3957 -3924)" fill="none" stroke="#fff" stroke-linecap="round" stroke-linejoin="round" stroke-width="2.5" />
                <path id="Path_1863-2" data-name="Path 1863" d="M283.733,559.806a2.421,2.421,0,1,1-2.421-2.421A2.421,2.421,0,0,1,283.733,559.806Z" transform="translate(-37.012 -167.779)" fill="none" stroke="#fcfcfc" stroke-linecap="round" stroke-linejoin="round" stroke-width="2" />
            </g>
            <g xmlns="http://www.w3.org/2000/svg" id="Group_1281" data-name="Group 1281" transform="matrix(0.978, 0.208, -0.208, 0.978, 856.798, -460.403)" opacity="0.7">
                <path id="Union_33" data-name="Union 33" d="M31.69,21.451a17.272,17.272,0,0,0-10.1,4.491V4.534S26.083.088,32.3,0,43.175,4.534,43.175,4.534s-.016,21.379,0,21.408C38.952,22.2,34.913,21.217,31.69,21.451Zm-21.587,0A17.272,17.272,0,0,0,0,25.942V4.534S4.495.088,10.714,0,21.587,4.534,21.587,4.534s-.016,21.379,0,21.408C17.364,22.2,13.327,21.217,10.1,21.451Z" transform="translate(138.758 466.546)" fill="none" stroke="#fff" stroke-linecap="round" stroke-linejoin="round" stroke-width="2" />
                <path id="Path_1866" data-name="Path 1866" d="M-3813.242,4398.513s6.045-6.637,14.424,0" transform="translate(3955.554 -3924.259)" fill="none" stroke="#fff" stroke-width="1" />
                <path id="Path_1867" data-name="Path 1867" d="M-3813.242,4398.513s6.045-6.637,14.424,0" transform="translate(3955.554 -3920.705)" fill="none" stroke="#fff" stroke-width="1" />
                <path id="Path_1868" data-name="Path 1868" d="M-3813.242,4398.513s6.045-6.637,14.424,0" transform="translate(3955.554 -3917.151)" fill="none" stroke="#fff" stroke-width="1" />
            </g>

            <path xmlns="http://www.w3.org/2000/svg" id="Union_34" data-name="Union 34" d="M3952-3900.57h12.406l-6.313,7.979Zm0,0V-3929h12.4v28.43Z" transform="translate(-4537.769 2.222) rotate(45)" fill="none" stroke="#fff" stroke-linecap="round" stroke-linejoin="round" stroke-width="2" opacity="0.7" />
            <path xmlns="http://www.w3.org/2000/svg" id="Path_1925" data-name="Path 1925" d="M2.269-12.211l2.684-3.3L.81-16.646,1.627-19.1,5.6-17.58l-.2-4.26H7.959l-.2,4.231,4-1.488.788,2.451L8.426-15.537l2.684,3.326-2.1,1.517-2.334-3.56-2.334,3.56Z" transform="translate(796.19 77.157)" fill="#fff" opacity="0.704" />

            <path xmlns="http://www.w3.org/2000/svg" id="Path_1893" data-name="Path 1893" d="M290.185,563.031a5.647,5.647,0,1,1-5.647-5.646A5.647,5.647,0,0,1,290.185,563.031Z" transform="translate(860.206 -509.539)" fill="none" stroke="#fcfcfc" stroke-linecap="round" stroke-linejoin="round" stroke-width="2" opacity="0.7" />

            <path xmlns="http://www.w3.org/2000/svg" id="Path_1925" data-name="Path 1925" d="M2.269-12.211l2.684-3.3L.81-16.646,1.627-19.1,5.6-17.58l-.2-4.26H7.959l-.2,4.231,4-1.488.788,2.451L8.426-15.537l2.684,3.326-2.1,1.517-2.334-3.56-2.334,3.56Z" transform="translate(1200.19 47.157)" fill="#fff" opacity="0.704" />

            <g xmlns="http://www.w3.org/2000/svg" id="Group_1264" data-name="Group 1264" transform="matrix(0.966, -0.259, 0.259, 0.966, 540.211, -515.218)" opacity="0.702">
                <path id="Union_41" data-name="Union 41" d="M0,15.772v-7.7s7.314-1.109,7.314,3.7c0,3.606-4.113,4.056-6.17,4.056C.458,15.822,0,15.772,0,15.772ZM0,.05s7.314-.8,7.314,4.006S0,7.754,0,7.754V.05Z" transform="translate(599.934 723.657)" fill="none" stroke="#fff" stroke-linecap="round" stroke-linejoin="round" stroke-width="2" opacity="0.9" />
                <g id="Group_1264-2" data-name="Group 1264" transform="translate(612.361 723.56)" opacity="0.9">
                    <path id="Path_1878" data-name="Path 1878" d="M-3600.611,4623.29s-.325,8.14,5.857,8.164,6.357-4.115,6.357-4.115" transform="translate(3600.614 -4615.439)" fill="none" stroke="#fff" stroke-linecap="round" stroke-linejoin="round" stroke-width="2" />
                    <path id="Path_1879" data-name="Path 1879" d="M-3600.611,4631.454s-.325-8.14,5.857-8.164,6.357,4.115,6.357,4.115" transform="translate(3600.614 -4623.291)" fill="none" stroke="#fff" stroke-linecap="round" stroke-linejoin="round" stroke-width="2" />
                </g>
                <g xmlns="http://www.w3.org/2000/svg">
                    <path xmlns="http://www.w3.org/2000/svg" id="Union_43" data-name="Union 43" d="M5.333,0l5.332,15.822Zm0,0L0,15.823ZM2.249,9.531h0Z" transform="translate(584.155 723.657)" fill="none" stroke="#fff" stroke-linejoin="round" stroke-width="2" opacity="0.9" />
                    <path xmlns="http://www.w3.org/2000/svg" id="Path_1861" data-name="Path 1861" d="M2.579,1.349h6.8" transform="translate(584.155 733.757)" fill="none" stroke="#fff" stroke-linejoin="round" stroke-width="2" opacity="0.7" />
                </g>
            </g>

            <path xmlns="http://www.w3.org/2000/svg" id="Path_1768" data-name="Path 1768" d="M353.279,545.419a11.819,11.819,0,0,1,23.638,0" transform="translate(763.707 183.228) rotate(-68)" fill="none" stroke="#fcfcfc" stroke-linecap="round" stroke-linejoin="round" stroke-width="2.5" opacity="0.7" />

            <g xmlns="http://www.w3.org/2000/svg" id="Group_1265" data-name="Group 1265" transform="translate(1029.373 -56.097) rotate(-47)" opacity="0.7">
                <path id="Path_1862" data-name="Path 1862" d="M-3710.944,4316.935v-9.217s10.02-.029,10.02-8.779-10.02-8.366-10.02-8.366-8.708.085-9.043,8.366" transform="translate(3957 -3924)" fill="none" stroke="#fff" stroke-linecap="round" stroke-linejoin="round" stroke-width="2.5" />
                <path id="Path_1863" data-name="Path 1863" d="M285.4,560.641a3.256,3.256,0,1,1-3.256-3.256A3.256,3.256,0,0,1,285.4,560.641Z" transform="translate(-36.31 -160.352)" fill="none" stroke="#fcfcfc" stroke-linecap="round" stroke-linejoin="round" stroke-width="2" />
            </g>

            <path xmlns="http://www.w3.org/2000/svg" id="Union_45" data-name="Union 45" d="M3952-3908.763v-9.885s9.384-1.423,9.384,4.744c0,4.626-5.278,5.2-7.917,5.2C3952.587-3908.7,3952-3908.763,3952-3908.763Zm0-20.172s9.384-1.029,9.384,5.14-9.384,4.745-9.384,4.745v-9.885Z" transform="translate(-2393.767 3964)" fill="none" stroke="#fff" stroke-linecap="round" stroke-linejoin="round" stroke-width="2" opacity="0.7" />
        </g>
    </svg>
</svg>