<svg xmlns="http://www.w3.org/2000/svg" width="1600" height="74" viewBox="0 0 1600 74">
    <path id="Rectangle_1404" data-name="Rectangle 1404" d="M0,0H1600a10,10,0,0,1,10,10V74a0,0,0,0,1,0,0H0a0,0,0,0,1,0,0V10A10,0,0,0,1,0,0Z" fill="#892e89" />
    <svg xmlns="http://www.w3.org/2000/svg" xmlns:xlink="http://www.w3.org/1999/xlink" width="1598.372" height="68.908" viewBox="0 0 1598.372 68.908">
        <defs>
            <clipPath id="clip-path">
                <path id="Path_1756" data-name="Path 1756" d="M-7157.434,13781.258l-10,10.186h15.966Z" transform="translate(7167.434 -13781.258)" fill="#fff" />
            </clipPath>
            <clipPath id="clip-path-2">
                <path id="Path_1756-2" data-name="Path 1756" d="M-7161.469,13781.258l10,10.186h-15.966Z" transform="translate(7167.435 -13781.258)" fill="#fff" />
            </clipPath>
        </defs>
        <g id="maths_background" data-name="maths background" transform="translate(8472.977 -5645.008)" opacity="0.4">
            <g id="Group_1286" data-name="Group 1286" transform="translate(1.25 1.25)" opacity="0.4">
                <line id="Line_274" data-name="Line 274" x2="23.361" transform="translate(0 13.233)" fill="none" stroke="#fcfcfc" stroke-linecap="round" stroke-linejoin="round" stroke-width="2.5" />
                <path id="Path_1757" data-name="Path 1757" d="M285.4,560.641a3.256,3.256,0,1,1-3.256-3.256A3.256,3.256,0,0,1,285.4,560.641Z" transform="translate(-270.099 -557.385)" fill="none" stroke="#fcfcfc" stroke-linecap="round" stroke-linejoin="round" stroke-width="2.5" />
                <path id="Path_1758" data-name="Path 1758" d="M285.4,560.641a3.256,3.256,0,1,1-3.256-3.256A3.256,3.256,0,0,1,285.4,560.641Z" transform="translate(-270.099 -537.432)" fill="none" stroke="#fcfcfc" stroke-linecap="round" stroke-linejoin="round" stroke-width="2.5" />
            </g>
            <path xmlns="http://www.w3.org/2000/svg" id="Union_19" data-name="Union 19" d="M8.034,8.034,0,16.069ZM0,0,8.034,8.034Z" transform="translate(-7669.62 5698.985) rotate(180)" fill="none" stroke="#fcfcfc" stroke-linecap="round" stroke-linejoin="round" stroke-width="2" opacity="0.7" />
            <path xmlns="http://www.w3.org/2000/svg" id="Union_9" data-name="Union 9" d="M8.034,8.034,0,16.069ZM0,0,8.034,8.034Z" transform="translate(-8381.62 5674.985) rotate(180)" fill="none" stroke="#fcfcfc" stroke-linecap="round" stroke-linejoin="round" stroke-width="2" opacity="0.7" />
            <g xmlns="http://www.w3.org/2000/svg" id="Group_1241" data-name="Group 1241" transform="translate(-8099.16 5647.989)" opacity="0.7">
                <path id="Union_4" data-name="Union 4" d="M0,16.921,16.841,0,0,16.921H0Z" transform="translate(0 0)" fill="none" stroke="#fcfcfc" stroke-linecap="round" stroke-linejoin="round" stroke-width="2" />
                <g id="Mask_Group_2" data-name="Mask Group 2" transform="translate(2.072 5.988)" clip-path="url(#clip-path)">
                    <path id="Path_1755" data-name="Path 1755" d="M0,6.926a6.926,6.926,0,0,1,13.853,0" transform="translate(7.189 0) rotate(71)" fill="none" stroke="#fcfcfc" stroke-linecap="round" stroke-linejoin="round" stroke-width="2" />
                </g>
                <path id="Union_4" data-name="Union 4" d="M0,16.921,16.841,0,0,16.921H0Z" transform="translate(10 5) rotate(40)" fill="none" stroke="#fcfcfc" stroke-linecap="round" stroke-linejoin="round" stroke-width="2" />
            </g>
            <line id="Line_356" data-name="Line 356" x2="28.5" y2="0.319" transform="translate(-7754.49 5659.269)" fill="none" stroke="#fcfcfc" stroke-linecap="round" stroke-linejoin="round" stroke-width="2.5" opacity="0.7" />
            <g id="Group_1267" data-name="Group 1267" transform="translate(-8148.717 5685.446)" opacity="0.7">
                <line id="Line_225" data-name="Line 225" x1="11.009" y1="10.326" transform="translate(0 0.34)" fill="none" stroke="#fcfcfc" stroke-linecap="round" stroke-linejoin="round" stroke-width="2.5" />
                <line id="Line_226" data-name="Line 226" y1="11.009" x2="10.327" transform="translate(0.34 0)" fill="none" stroke="#fcfcfc" stroke-linecap="round" stroke-linejoin="round" stroke-width="2.5" />
            </g>
            <line xmlns="http://www.w3.org/2000/svg" id="Line_356" data-name="Line 356" x2="28.5" y2="0.319" transform="translate(-8027.441 5685.534)" fill="none" stroke="#fcfcfc" stroke-linecap="round" stroke-linejoin="round" stroke-width="2.5" opacity="0.7" />
            <g id="Group_1283" data-name="Group 1283" transform="translate(-7827.071 5664.484)" opacity="0.703">
                <line id="Line_274" data-name="Line 274" x2="23.361" transform="translate(0 13.233)" fill="none" stroke="#fcfcfc" stroke-linecap="round" stroke-linejoin="round" stroke-width="2.5" />
                <path id="Path_1757" data-name="Path 1757" d="M285.4,560.641a3.256,3.256,0,1,1-3.256-3.256A3.256,3.256,0,0,1,285.4,560.641Z" transform="translate(-270.099 -557.385)" fill="none" stroke="#fcfcfc" stroke-linecap="round" stroke-linejoin="round" stroke-width="2.5" />
                <path id="Path_1758" data-name="Path 1758" d="M285.4,560.641a3.256,3.256,0,1,1-3.256-3.256A3.256,3.256,0,0,1,285.4,560.641Z" transform="translate(-270.099 -537.432)" fill="none" stroke="#fcfcfc" stroke-linecap="round" stroke-linejoin="round" stroke-width="2.5" />
            </g>
            <path id="Union_56" data-name="Union 56" d="M8.035,8.035,0,0ZM0,16.069,8.035,8.035Z" transform="translate(-7884.326 5656.45)" fill="none" stroke="#fcfcfc" stroke-linecap="round" stroke-linejoin="round" stroke-width="2" opacity="0.7" />
            <g xmlns="http://www.w3.org/2000/svg" id="Group_1284" data-name="Group 1284" transform="translate(-8467.259 5688.421) rotate(19)" opacity="0.696">
                <line id="Line_225-2" data-name="Line 225" x1="11.009" y1="10.326" transform="translate(0 0.34)" fill="none" stroke="#fcfcfc" stroke-linecap="round" stroke-linejoin="round" stroke-width="2.5" />
                <line id="Line_226-2" data-name="Line 226" y1="11.009" x2="10.327" transform="translate(0.34 0)" fill="none" stroke="#fcfcfc" stroke-linecap="round" stroke-linejoin="round" stroke-width="2.5" />
            </g>
            <g xmlns="http://www.w3.org/2000/svg" id="Group_1299" data-name="Group 1299" transform="translate(-7936.741 5683.51) rotate(50)" opacity="0.696">
                <line id="Line_225-2" data-name="Line 225" x1="14.009" y1="12.326" transform="translate(0 0.34)" fill="none" stroke="#fcfcfc" stroke-linecap="round" stroke-linejoin="round" stroke-width="2.5" />
                <line id="Line_226-2" data-name="Line 226" y1="14.009" x2="12.327" transform="translate(0.34 0)" fill="none" stroke="#fcfcfc" stroke-linecap="round" stroke-linejoin="round" stroke-width="2.5" />
            </g>
            <g xmlns="http://www.w3.org/2000/svg" id="Group_1290" data-name="Group 1290" transform="translate(-7467.259 5668.421) rotate(48)" opacity="0.696">
                <line id="Line_225-2" data-name="Line 225" x1="14.009" y1="12.326" transform="translate(0 0.34)" fill="none" stroke="#fcfcfc" stroke-linecap="round" stroke-linejoin="round" stroke-width="2.5" />
                <line id="Line_226-2" data-name="Line 226" y1="14.009" x2="12.327" transform="translate(0.34 0)" fill="none" stroke="#fcfcfc" stroke-linecap="round" stroke-linejoin="round" stroke-width="2.5" />
            </g>
            <g xmlns="http://www.w3.org/2000/svg" id="Group_1283" data-name="Group 1283" transform="translate(-7367.071 5684.484)" opacity="0.703">
                <line id="Line_274" data-name="Line 274" x2="23.361" transform="translate(0 13.233)" fill="none" stroke="#fcfcfc" stroke-linecap="round" stroke-linejoin="round" stroke-width="2.5" />
                <path id="Path_1757" data-name="Path 1757" d="M285.4,560.641a3.256,3.256,0,1,1-3.256-3.256A3.256,3.256,0,0,1,285.4,560.641Z" transform="translate(-270.099 -557.385)" fill="none" stroke="#fcfcfc" stroke-linecap="round" stroke-linejoin="round" stroke-width="2.5" />
                <path id="Path_1758" data-name="Path 1758" d="M285.4,560.641a3.256,3.256,0,1,1-3.256-3.256A3.256,3.256,0,0,1,285.4,560.641Z" transform="translate(-270.099 -537.432)" fill="none" stroke="#fcfcfc" stroke-linecap="round" stroke-linejoin="round" stroke-width="2.5" />
            </g>
            <path xmlns="http://www.w3.org/2000/svg" id="Path_1922" data-name="Path 1922" d="M12.6-1.656V0H3.072V-1.656H6.84V-14.64l-3.5,2.232v-1.9L7.7-17.088H8.832V-1.656Zm14.784,0V0H16.392V-1.488l5.976-6.624a12,12,0,0,0,1.752-2.424,4.709,4.709,0,0,0,.552-2.16,2.815,2.815,0,0,0-.816-2.172,3.3,3.3,0,0,0-2.328-.756,7.632,7.632,0,0,0-4.848,1.968l-.744-1.512A7.4,7.4,0,0,1,18.48-16.7a8.759,8.759,0,0,1,3.1-.576,5.409,5.409,0,0,1,3.72,1.212,4.156,4.156,0,0,1,1.368,3.276A6.369,6.369,0,0,1,26-9.972a13.424,13.424,0,0,1-2.2,3.036l-4.872,5.28ZM38.352-8.784a4.217,4.217,0,0,1,2.3,1.488,4.317,4.317,0,0,1,.792,2.664,4.369,4.369,0,0,1-1.512,3.516,6.135,6.135,0,0,1-4.1,1.284,9.266,9.266,0,0,1-3.18-.552,7.261,7.261,0,0,1-2.58-1.56l.768-1.512a7.672,7.672,0,0,0,4.944,1.968A4.139,4.139,0,0,0,38.556-2.3,2.993,2.993,0,0,0,39.5-4.7q0-3.144-3.936-3.144H33.6V-9.5h1.584a4.426,4.426,0,0,0,2.9-.84,2.948,2.948,0,0,0,1.008-2.4,2.723,2.723,0,0,0-.828-2.136,3.381,3.381,0,0,0-2.34-.744,7.632,7.632,0,0,0-4.848,1.968l-.744-1.512a7.378,7.378,0,0,1,2.532-1.548A8.826,8.826,0,0,1,36-17.28,5.488,5.488,0,0,1,39.684-16.1a3.949,3.949,0,0,1,1.38,3.168,4.6,4.6,0,0,1-.72,2.568A4,4,0,0,1,38.352-8.784Z" transform="translate(-7300.535 5668.437) rotate(0)" fill="#fcfcfc" opacity="0.709" />
            <g xmlns="http://www.w3.org/2000/svg" id="Group_1285" data-name="Group 1285" transform="translate(-7631.151 5650.808)" opacity="0.7">
                <path id="Union_4-2" data-name="Union 4" d="M0,0,16.841,16.921,0,0H0Z" transform="translate(22.499 16.921) rotate(180)" fill="none" stroke="#fcfcfc" stroke-linecap="round" stroke-linejoin="round" stroke-width="2" />
                <g id="Mask_Group_2-2" data-name="Mask Group 2" transform="translate(4.461 5.988)" clip-path="url(#clip-path-2)">
                    <path id="Path_1755-2" data-name="Path 1755" d="M0,0A6.927,6.927,0,0,0,6.926,6.926,6.926,6.926,0,0,0,13.853,0" transform="translate(15.326 2.255) rotate(109)" fill="none" stroke="#fcfcfc" stroke-linecap="round" stroke-linejoin="round" stroke-width="2" />
                </g>
                <path id="Union_4-2" data-name="Union 4" d="M0,0,16.841,16.921,0,0H0Z" transform="translate(22.499 16.921) rotate(140)" fill="none" stroke="#fcfcfc" stroke-linecap="round" stroke-linejoin="round" stroke-width="2" />
            </g>
            <g xmlns="http://www.w3.org/2000/svg" id="Group_1241" data-name="Group 1241" transform="translate(-7228.16 5687.989)" opacity="0.7">
                <path id="Union_4" data-name="Union 4" d="M0,16.921,16.841,0,0,16.921H0Z" transform="translate(0 0) rotate(-12)" fill="none" stroke="#fcfcfc" stroke-linecap="round" stroke-linejoin="round" stroke-width="2" />
                <g xmlns="http://www.w3.org/2000/svg" id="Mask_Group_2" data-name="Mask Group 2" transform="translate(2.072 5.988)" clip-path="url(#clip-path)">
                    <path id="Path_1755" data-name="Path 1755" d="M0,6.926a6.926,6.926,0,0,1,13.853,0" transform="translate(7.189 0) rotate(70)" fill="none" stroke="#fcfcfc" stroke-linecap="round" stroke-linejoin="round" stroke-width="2" />
                </g>
                <path xmlns="http://www.w3.org/2000/svg" id="Union_4" data-name="Union 4" d="M0,0,16.841,16.921,0,0H0Z" transform="translate(27 11) rotate(120)" fill="none" stroke="#fcfcfc" stroke-linecap="round" stroke-linejoin="round" stroke-width="2" />
            </g>

            <line xmlns="http://www.w3.org/2000/svg" id="Line_356" data-name="Line 356" x2="28.5" y2="0.319" transform="translate(-7124.49 5679.269)" fill="none" stroke="#fcfcfc" stroke-linecap="round" stroke-linejoin="round" stroke-width="2.5" opacity="0.7" />

            <g xmlns="http://www.w3.org/2000/svg" id="Group_1283" data-name="Group 1283" transform="translate(-7027.071 5654.484)" opacity="0.703">
                <line id="Line_274" data-name="Line 274" x2="23.361" transform="translate(0 13.233)" fill="none" stroke="#fcfcfc" stroke-linecap="round" stroke-linejoin="round" stroke-width="2.5" />
                <path id="Path_1757" data-name="Path 1757" d="M285.4,560.641a3.256,3.256,0,1,1-3.256-3.256A3.256,3.256,0,0,1,285.4,560.641Z" transform="translate(-270.099 -557.385)" fill="none" stroke="#fcfcfc" stroke-linecap="round" stroke-linejoin="round" stroke-width="2.5" />
                <path id="Path_1758" data-name="Path 1758" d="M285.4,560.641a3.256,3.256,0,1,1-3.256-3.256A3.256,3.256,0,0,1,285.4,560.641Z" transform="translate(-270.099 -537.432)" fill="none" stroke="#fcfcfc" stroke-linecap="round" stroke-linejoin="round" stroke-width="2.5" />
            </g>

            <path xmlns="http://www.w3.org/2000/svg" id="Path_1922" data-name="Path 1922" d="M12.6-1.656V0H3.072V-1.656H6.84V-14.64l-3.5,2.232v-1.9L7.7-17.088H8.832V-1.656Zm14.784,0V0H16.392V-1.488l5.976-6.624a12,12,0,0,0,1.752-2.424,4.709,4.709,0,0,0,.552-2.16,2.815,2.815,0,0,0-.816-2.172,3.3,3.3,0,0,0-2.328-.756,7.632,7.632,0,0,0-4.848,1.968l-.744-1.512A7.4,7.4,0,0,1,18.48-16.7a8.759,8.759,0,0,1,3.1-.576,5.409,5.409,0,0,1,3.72,1.212,4.156,4.156,0,0,1,1.368,3.276A6.369,6.369,0,0,1,26-9.972a13.424,13.424,0,0,1-2.2,3.036l-4.872,5.28ZM38.352-8.784a4.217,4.217,0,0,1,2.3,1.488,4.317,4.317,0,0,1,.792,2.664,4.369,4.369,0,0,1-1.512,3.516,6.135,6.135,0,0,1-4.1,1.284,9.266,9.266,0,0,1-3.18-.552,7.261,7.261,0,0,1-2.58-1.56l.768-1.512a7.672,7.672,0,0,0,4.944,1.968A4.139,4.139,0,0,0,38.556-2.3,2.993,2.993,0,0,0,39.5-4.7q0-3.144-3.936-3.144H33.6V-9.5h1.584a4.426,4.426,0,0,0,2.9-.84,2.948,2.948,0,0,0,1.008-2.4,2.723,2.723,0,0,0-.828-2.136,3.381,3.381,0,0,0-2.34-.744,7.632,7.632,0,0,0-4.848,1.968l-.744-1.512a7.378,7.378,0,0,1,2.532-1.548A8.826,8.826,0,0,1,36-17.28,5.488,5.488,0,0,1,39.684-16.1a3.949,3.949,0,0,1,1.38,3.168,4.6,4.6,0,0,1-.72,2.568A4,4,0,0,1,38.352-8.784Z" transform="translate(-6950.535 5688.437) rotate(-30)" fill="#fcfcfc" opacity="0.709" />
            <path opacity="0.7" stroke-width="2" stroke-linejoin="round" stroke-linecap="round" stroke="#fcfcfc" fill="rgba(0,0,0,0)" transform="translate(-7200.271 5640.296) rotate(-19)" d="M0,28.218H0Zm0,0v0Zm9.489-9.654v0Zm-9.116,0h0Z" data-name="Union 49" id="Union_49" />
            <path id="Path_1922" data-name="Path 1922" d="M12.6-1.656V0H3.072V-1.656H6.84V-14.64l-3.5,2.232v-1.9L7.7-17.088H8.832V-1.656Zm14.784,0V0H16.392V-1.488l5.976-6.624a12,12,0,0,0,1.752-2.424,4.709,4.709,0,0,0,.552-2.16,2.815,2.815,0,0,0-.816-2.172,3.3,3.3,0,0,0-2.328-.756,7.632,7.632,0,0,0-4.848,1.968l-.744-1.512A7.4,7.4,0,0,1,18.48-16.7a8.759,8.759,0,0,1,3.1-.576,5.409,5.409,0,0,1,3.72,1.212,4.156,4.156,0,0,1,1.368,3.276A6.369,6.369,0,0,1,26-9.972a13.424,13.424,0,0,1-2.2,3.036l-4.872,5.28ZM38.352-8.784a4.217,4.217,0,0,1,2.3,1.488,4.317,4.317,0,0,1,.792,2.664,4.369,4.369,0,0,1-1.512,3.516,6.135,6.135,0,0,1-4.1,1.284,9.266,9.266,0,0,1-3.18-.552,7.261,7.261,0,0,1-2.58-1.56l.768-1.512a7.672,7.672,0,0,0,4.944,1.968A4.139,4.139,0,0,0,38.556-2.3,2.993,2.993,0,0,0,39.5-4.7q0-3.144-3.936-3.144H33.6V-9.5h1.584a4.426,4.426,0,0,0,2.9-.84,2.948,2.948,0,0,0,1.008-2.4,2.723,2.723,0,0,0-.828-2.136,3.381,3.381,0,0,0-2.34-.744,7.632,7.632,0,0,0-4.848,1.968l-.744-1.512a7.378,7.378,0,0,1,2.532-1.548A8.826,8.826,0,0,1,36-17.28,5.488,5.488,0,0,1,39.684-16.1a3.949,3.949,0,0,1,1.38,3.168,4.6,4.6,0,0,1-.72,2.568A4,4,0,0,1,38.352-8.784Z" transform="translate(-8238.535 5658.437) rotate(30)" fill="#fcfcfc" opacity="0.709" />
            <path id="Path_1923" data-name="Path 1923" d="M12.6-1.656V0H3.072V-1.656H6.84V-14.64l-3.5,2.232v-1.9L7.7-17.088H8.832V-1.656Zm14.784,0V0H16.392V-1.488l5.976-6.624a12,12,0,0,0,1.752-2.424,4.709,4.709,0,0,0,.552-2.16,2.815,2.815,0,0,0-.816-2.172,3.3,3.3,0,0,0-2.328-.756,7.632,7.632,0,0,0-4.848,1.968l-.744-1.512A7.4,7.4,0,0,1,18.48-16.7a8.759,8.759,0,0,1,3.1-.576,5.409,5.409,0,0,1,3.72,1.212,4.156,4.156,0,0,1,1.368,3.276A6.369,6.369,0,0,1,26-9.972a13.424,13.424,0,0,1-2.2,3.036l-4.872,5.28ZM38.352-8.784a4.217,4.217,0,0,1,2.3,1.488,4.317,4.317,0,0,1,.792,2.664,4.369,4.369,0,0,1-1.512,3.516,6.135,6.135,0,0,1-4.1,1.284,9.266,9.266,0,0,1-3.18-.552,7.261,7.261,0,0,1-2.58-1.56l.768-1.512a7.672,7.672,0,0,0,4.944,1.968A4.139,4.139,0,0,0,38.556-2.3,2.993,2.993,0,0,0,39.5-4.7q0-3.144-3.936-3.144H33.6V-9.5h1.584a4.426,4.426,0,0,0,2.9-.84,2.948,2.948,0,0,0,1.008-2.4,2.723,2.723,0,0,0-.828-2.136,3.381,3.381,0,0,0-2.34-.744,7.632,7.632,0,0,0-4.848,1.968l-.744-1.512a7.378,7.378,0,0,1,2.532-1.548A8.826,8.826,0,0,1,36-17.28,5.488,5.488,0,0,1,39.684-16.1a3.949,3.949,0,0,1,1.38,3.168,4.6,4.6,0,0,1-.72,2.568A4,4,0,0,1,38.352-8.784Z" transform="translate(-7568.14 5684.7) rotate(30)" fill="#fcfcfc" opacity="0.709" />
            <path id="Path_1924" data-name="Path 1924" d="M3.88-10.465a2.585,2.585,0,0,1-2.075-.876A3.844,3.844,0,0,1,1.056-13.9a3.817,3.817,0,0,1,.749-2.548,2.585,2.585,0,0,1,2.075-.876,2.627,2.627,0,0,1,2.1.876A3.79,3.79,0,0,1,6.736-13.9a3.817,3.817,0,0,1-.757,2.564A2.627,2.627,0,0,1,3.88-10.465ZM3.77-5.937l6.5-11.234h1.751L5.505-5.937Zm.11-5.806a.958.958,0,0,0,.9-.5A3.569,3.569,0,0,0,5.064-13.9a3.448,3.448,0,0,0-.292-1.633.959.959,0,0,0-.891-.513.929.929,0,0,0-.868.513A3.531,3.531,0,0,0,2.728-13.9a3.576,3.576,0,0,0,.284,1.649A.929.929,0,0,0,3.88-11.743ZM11.9-5.826A2.6,2.6,0,0,1,9.8-6.7a3.871,3.871,0,0,1-.749-2.58,3.785,3.785,0,0,1,.749-2.54,2.615,2.615,0,0,1,2.091-.868,2.615,2.615,0,0,1,2.091.868,3.812,3.812,0,0,1,.749,2.556A3.844,3.844,0,0,1,13.986-6.7,2.6,2.6,0,0,1,11.9-5.826Zm0-1.278a.942.942,0,0,0,.884-.513,3.576,3.576,0,0,0,.284-1.649,3.448,3.448,0,0,0-.292-1.633.946.946,0,0,0-.876-.513.942.942,0,0,0-.884.513,3.531,3.531,0,0,0-.284,1.633,3.576,3.576,0,0,0,.284,1.649A.942.942,0,0,0,11.9-7.1Z" transform="translate(-8326.095 5719.742)" fill="#fff" opacity="0.698" />
        </g>
    </svg>
</svg>