<svg xmlns="http://www.w3.org/2000/svg" width="70.244" height="78.003" viewBox="0 0 70.244 78.003">
    <g id="Clicking_icon" data-name="Clicking icon" transform="translate(-477.695 -290.092)">
        <g id="tap_hand" data-name="tap hand" transform="matrix(0.966, -0.259, 0.259, 0.966, 474.389, 290.393)">
            <path id="Path_1773" data-name="Path 1773" d="M60.035,45.349a5.43,5.43,0,0,0-4.379-.957c-.195-2.636-1.084-5.225-4.461-5.569a6.584,6.584,0,0,0-3.424.477c-.919-2.941-2.922-3.673-4.676-3.673a12.641,12.641,0,0,0-3.2.377V29.312c0-4.173-1.927-7.472-5.426-7.472s-5.426,3.3-5.426,7.472v16.9a14.678,14.678,0,0,0-1.572-.083c-2,.029-4.481,1.08-4.981,5.893-.017.138-.426,3.428-.493,7.784-.091,5.983.971,10.967,3.069,14.413a21.944,21.944,0,0,0,9.445,8.721,21.067,21.067,0,0,0,8.963,1.671,21.059,21.059,0,0,0,9.939-2.322c.729-.368,9.115-4.923,9.115-19.967,0-4.917-.081-7.111-.322-11.209C62.036,48.272,61.348,46.439,60.035,45.349Zm-6.325.489C57.1,46.27,53.711,42.019,53.711,45.838Z" transform="translate(-21.988 -4.316)" fill="#b5cdcd" />
            <path id="Path_1771" data-name="Path 1771" d="M60.035,45.349a5.43,5.43,0,0,0-4.379-.957c-.195-2.636-1.084-5.225-4.461-5.569a6.584,6.584,0,0,0-3.424.477c-.919-2.941-2.922-3.673-4.676-3.673a12.641,12.641,0,0,0-3.2.377V26.312c0-4.173-1.927-6.472-5.426-6.472s-5.426,2.3-5.426,6.472v19.9a14.678,14.678,0,0,0-1.572-.083c-2,.029-4.481,1.08-4.981,5.893-.017.138-.426,3.428-.493,7.784-.091,5.983.971,10.967,3.069,14.413a21.944,21.944,0,0,0,9.445,8.721,21.067,21.067,0,0,0,8.963,1.671,21.059,21.059,0,0,0,9.939-2.322c.729-.368,9.115-4.923,9.115-19.967,0-4.917-.081-7.111-.322-11.209C62.036,48.272,61.348,46.439,60.035,45.349ZM52.539,80.4l-.074.04a19.184,19.184,0,0,1-8.993,2.072,19.314,19.314,0,0,1-8.117-1.474L35.267,81a20.176,20.176,0,0,1-8.521-7.911c-1.86-3.053-2.838-7.759-2.755-13.248.064-4.23.471-7.51.478-7.567.369-3.553,1.811-4.029,3.027-4.047a12.111,12.111,0,0,1,1.544.091V60.18h2V26.312c0-3.878,1.833-4.375,3.429-4.375s3.43.5,3.43,4.375v20.8h2V38.179a10.105,10.105,0,0,1,3.2-.455c.873,0,3.191,0,3.191,5.519V51.38h2V43.243a17.085,17.085,0,0,0-.1-1.824A4.319,4.319,0,0,1,51,40.911c1.672.169,2.708,1.054,2.708,4.928v8.553h2V46.5a3.729,3.729,0,0,1,3.088.491c.824.684,1.286,2.075,1.414,4.251.239,4.049.319,6.218.319,11.079C60.529,76.3,52.862,80.245,52.539,80.4Z" transform="translate(-21.988 -4.169)" fill="#016060" />
            <path id="Path_1807" data-name="Path 1807" d="M37.893,7.029a9.69,9.69,0,0,1,9.679,9.679H49.6a11.708,11.708,0,1,0-23.415,0h2.028A9.69,9.69,0,0,1,37.893,7.029Z" transform="translate(-25.366 4.72)" fill="#016060" />
        </g>
        <g id="Click" transform="translate(-79.17 310.419) rotate(-30)">
            <line id="Line_330" data-name="Line 330" y1="3.782" transform="translate(532 284.5)" fill="none" stroke="#016060" stroke-linecap="round" stroke-width="1" />
            <line id="Line_331" data-name="Line 331" y1="2.782" x2="2.5" transform="translate(534 287.391)" fill="none" stroke="#016060" stroke-linecap="round" stroke-width="1" />
            <line id="Line_332" data-name="Line 332" x1="2.5" y1="2.782" transform="translate(527.5 287.391)" fill="none" stroke="#016060" stroke-linecap="round" stroke-width="1" />
            <line id="Line_333" data-name="Line 333" x1="3.5" transform="translate(524.5 292.173)" fill="none" stroke="#016060" stroke-linecap="round" stroke-width="1" />
            <line id="Line_334" data-name="Line 334" x1="3.5" transform="translate(535.5 292.173)" fill="none" stroke="#016060" stroke-linecap="round" stroke-width="1" />
            <path id="Path_1806" data-name="Path 1806" d="M72.151,27.894V14.181l6.431,3.326L69.7,2.2l-8.479,15.3,6.506-3.326V27.894Z" transform="translate(462.299 289.493)" fill="#016060" />
        </g>
    </g>
</svg>
