<svg xmlns="http://www.w3.org/2000/svg" width="121.438" height="112.774" viewBox="0 0 121.438 112.774">
    <g id="Waving_hand" data-name="Waving hand" transform="translate(-0.921 -7.287)">
        <g id="Group_1270" data-name="Group 1270" transform="translate(2.43 9.756)">
            <path id="Path_1897" data-name="Path 1897" d="M94.743,71.2c-3.778-7.307-13.4-24.782-19.036-32.168-3.041-3.985-6.461-7.532-11.835-4.475l-3.447-6.916a10.6,10.6,0,0,0-4.437-4.966,7.072,7.072,0,0,0-6.606.289A7.086,7.086,0,0,0,45.213,28.1c-.012.067-.016.137-.026.207l-.245-.428A10.275,10.275,0,0,0,40.131,23.2a7.476,7.476,0,0,0-6.744.8,7.479,7.479,0,0,0-4.062,5.445A9.437,9.437,0,0,0,30.4,34.84a7.081,7.081,0,0,0-5.736.981,6.9,6.9,0,0,0-3.693,5.384,10.6,10.6,0,0,0,1.8,6.285L42.913,86.5c-1.244-.845-2.607-1.792-3.855-2.659-3.7-2.574-7.53-5.234-9.811-6.444A7.038,7.038,0,0,0,19.1,83.744,10.48,10.48,0,0,0,22.072,89.7,87.972,87.972,0,0,0,36.089,101.68l2.384,1.654a122.433,122.433,0,0,0,14.6,9.225h0A32.928,32.928,0,0,0,68.2,116.464c.892,0,1.482-.049,1.691-.071.719-.026,5.741-.334,12.781-3.974a32.289,32.289,0,0,0,11.46-9.57C95.121,101.659,104.359,89.788,94.743,71.2Z" transform="translate(2.469 -6.159)" fill="#e6cce6" />
            <path id="Path_1896" data-name="Path 1896" d="M94.743,71.2c-3.778-7.307-13.4-24.782-19.036-32.168-3.041-3.985-6.461-7.532-11.835-4.475l-3.447-6.916a10.6,10.6,0,0,0-4.437-4.966,7.072,7.072,0,0,0-6.606.289A7.086,7.086,0,0,0,45.213,28.1c-.012.067-.016.137-.026.207l-.245-.428A10.275,10.275,0,0,0,40.131,23.2a7.476,7.476,0,0,0-6.744.8,7.479,7.479,0,0,0-4.062,5.445A9.437,9.437,0,0,0,30.4,34.84a7.081,7.081,0,0,0-5.736.981,6.9,6.9,0,0,0-3.693,5.384,10.6,10.6,0,0,0,1.8,6.285L42.913,86.5c-1.244-.845-2.607-1.792-3.855-2.659-3.7-2.574-7.53-5.234-9.811-6.444A7.038,7.038,0,0,0,19.1,83.744,10.48,10.48,0,0,0,22.072,89.7,87.972,87.972,0,0,0,36.089,101.68l2.384,1.654a122.433,122.433,0,0,0,14.6,9.225h0A32.928,32.928,0,0,0,68.2,116.464c.892,0,1.482-.049,1.691-.071.719-.026,5.741-.334,12.781-3.974a32.289,32.289,0,0,0,11.46-9.57C95.121,101.659,104.359,89.788,94.743,71.2ZM46.584,90.025l-1.423.82c-.009-.017-.016-.052-.025-.072Zm45.1,10.838-.129.168a29.352,29.352,0,0,1-10.334,8.591c-6.736,3.483-11.421,3.624-11.461,3.626l-.153.01a29.118,29.118,0,0,1-16.092-4.048l-.014.026a132.7,132.7,0,0,1-13.23-8.486l-2.39-1.658a84.284,84.284,0,0,1-13.574-11.61,7.482,7.482,0,0,1-2.063-3.93A3.841,3.841,0,0,1,24.11,80.39a3.775,3.775,0,0,1,3.663-.21c2.113,1.119,6.033,3.844,9.489,6.249,8.34,5.8,9.146,6.3,10.4,5.147a1.766,1.766,0,0,0,.251-2.237l0,0-22.4-43.377A7.787,7.787,0,0,1,24.1,41.494a3.886,3.886,0,0,1,2.175-2.972,3.9,3.9,0,0,1,3.649-.515,7.774,7.774,0,0,1,3.27,3.351l21.778,36.6,1.378-.82,1.341-.766-23.991-42a7.312,7.312,0,0,1-1.263-4.484,4.448,4.448,0,0,1,2.519-3.161,4.457,4.457,0,0,1,4-.607,7.31,7.31,0,0,1,3.257,3.329L64.062,67.576l1.368-.782,1.387-.738-.025-.044h0l-.018-.032L49.366,33.2a7.619,7.619,0,0,1-1.055-4.555A4.064,4.064,0,0,1,50.8,25.777a4.064,4.064,0,0,1,3.784-.285,7.63,7.63,0,0,1,3.028,3.56l19.6,39.332,2.818-1.405L65.271,37.371c3.007-1.819,4.777-.56,7.932,3.574,5.508,7.22,15.008,24.478,18.743,31.705C100.856,89.867,92.058,100.426,91.684,100.863Z" transform="translate(2.469 -6.159)" fill="#892e89" />
            <path id="Path_1899" data-name="Path 1899" d="M-415.706,4146.362s-7.213-17.6,3.169-35.583" transform="translate(428.926 -4064.56)" fill="none" stroke="#be7ebe" stroke-linecap="round" stroke-width="3" />
            <path id="Path_1900" data-name="Path 1900" d="M-414.492,4164.066s-10.8-26.358,4.746-53.288" transform="translate(418.145 -4075.795)" fill="none" stroke="#be7ebe" stroke-linecap="round" stroke-width="3" />
            <path id="Path_1901" data-name="Path 1901" d="M2.439,35.583S-4.774,17.982,5.608,0" transform="matrix(-0.766, 0.643, -0.643, -0.766, 101.975, 39.144)" fill="none" stroke="#be7ebe" stroke-linecap="round" stroke-width="3" />
            <path id="Path_1902" data-name="Path 1902" d="M3.652,53.288S-7.149,26.929,8.4,0" transform="matrix(-0.766, 0.643, -0.643, -0.766, 117.455, 40.821)" fill="none" stroke="#be7ebe" stroke-linecap="round" stroke-width="3" />
        </g>
    </g>
</svg>