<svg xmlns="http://www.w3.org/2000/svg" xmlns:xlink="http://www.w3.org/1999/xlink" width="45.702" height="45.403" viewBox="0 0 45.702 45.403">
    <defs>
        <filter id="bg" x="0" y="1.702" width="43" height="43" filterUnits="userSpaceOnUse">
            <feOffset dy="2" input="SourceAlpha" />
            <feGaussianBlur stdDeviation="1" result="blur" />
            <feFlood flood-opacity="0.525" />
            <feComposite operator="in" in2="blur" />
            <feComposite in2="SourceGraphic" />
        </filter>
    </defs>
    <g transform="matrix(1, 0, 0, 1, 0, 0)" filter="url(#bg)">
        <rect id="bg-2" data-name="bg" width="37" height="37" rx="18.5" transform="translate(3 2.7)" fill="#bf4612" />
    </g>
    <circle id="blur-2" data-name="blur" cx="17" cy="17" r="17" transform="translate(6 5.702)" fill="none" />
    <circle id="outline" cx="18.5" cy="18.5" r="18.5" transform="translate(3 2.702)" fill="none" stroke="#fff" stroke-width="3" />
    <g id="Group_948" data-name="Group 948" transform="translate(-647 -17.298)">
        <path id="Path_1329" data-name="Path 1329" d="M3.823,0A3.823,3.823,0,1,1,0,3.823,3.823,3.823,0,0,1,3.823,0Z" transform="translate(664.7 29.625)" fill="#fff" />
        <path id="Path_1330" data-name="Path 1330" d="M-8140.363-3181.745h13.02s.983-8.4-6.664-8.249S-8140.363-3181.745-8140.363-3181.745Z" transform="translate(8802.373 3228.119)" fill="#fff" />
    </g>
</svg>