<svg xmlns="http://www.w3.org/2000/svg" xmlns:xlink="http://www.w3.org/1999/xlink" width="100%" height="100%" viewBox="10 10 1021 745">
    <defs>
        <linearGradient id="linear-gradient" x1="1.115" y1="0.5" x2="-0.1" y2="0.5" gradientUnits="objectBoundingBox">
            <stop offset="0" stop-color="#7f59ae" />
            <stop offset="0.842" stop-color="#30a8c9" />
            <stop offset="0.931" stop-color="#3e9ac4" />
            <stop offset="1" stop-color="#7c5cae" />
        </linearGradient>
        <filter id="bg" x="0" y="0" width="1042" height="787" filterUnits="userSpaceOnUse">
            <feOffset dy="2" input="SourceAlpha" />
            <feGaussianBlur stdDeviation="3" result="blur" />
            <feFlood flood-opacity="0.302" />
            <feComposite operator="in" in2="blur" />
            <feComposite in2="SourceGraphic" />
        </filter>
    </defs>
    <g transform="matrix(1, 0, 0, 1, 0, 0)" filter="url(#bg)">
        <g id="bg-2" data-name="bg" transform="translate(9 7)" stroke="rgba(112,112,112,0.5)" stroke-width="1" fill="url(#linear-gradient)">
            <rect width="1029" height="770" stroke="none" />
            <rect x="0.5" y="0.5" width="1028" height="769" fill="none" />
        </g>
    </g>


    <svg xmlns="http://www.w3.org/2000/svg" xmlns:xlink="http://www.w3.org/1999/xlink" width="1016.048" height="770.022" viewBox="0 0 1016.048 770.022">
        <defs>
            <clipPath id="clip-path">
                <path id="Path_1756" data-name="Path 1756" d="M-7157.434,13781.258l-10,10.186h15.966Z" transform="translate(7167.434 -13781.258)" fill="#fff" />
            </clipPath>
            <clipPath id="clip-path-2">
                <path id="Path_1756-2" data-name="Path 1756" d="M-7161.469,13781.258l10,10.186h-15.966Z" transform="translate(7167.435 -13781.258)" fill="#fff" />
            </clipPath>
        </defs>
        <g id="background_illustrations" data-name="background illustrations" transform="translate(1.264 1.022)">
            <path id="Union_1" data-name="Union 1" d="M12.946,12.946h0v0h0v0Z" transform="translate(670.311 25.964)" fill="none" stroke="#fcfcfc" stroke-linecap="round" stroke-linejoin="round" stroke-width="3" opacity="0.9" />
            <path id="Path_1763" data-name="Path 1763" d="M300.842,568.359a10.975,10.975,0,1,1-10.975-10.974A10.976,10.976,0,0,1,300.842,568.359Z" transform="translate(-64.802 -242.309)" fill="none" stroke="#fcfcfc" stroke-linecap="round" stroke-linejoin="round" stroke-width="2" opacity="0.7" />
            <g id="Group_1221" data-name="Group 1221" transform="translate(33.789 284.272)" opacity="0.9">
                <line id="Line_274" data-name="Line 274" x2="23.361" transform="translate(0 13.233)" fill="none" stroke="#fcfcfc" stroke-linecap="round" stroke-linejoin="round" stroke-width="2.5" />
                <path id="Path_1757" data-name="Path 1757" d="M285.4,560.641a3.256,3.256,0,1,1-3.256-3.256A3.256,3.256,0,0,1,285.4,560.641Z" transform="translate(-270.099 -557.385)" fill="none" stroke="#fcfcfc" stroke-linecap="round" stroke-linejoin="round" stroke-width="2.5" />
                <path id="Path_1758" data-name="Path 1758" d="M285.4,560.641a3.256,3.256,0,1,1-3.256-3.256A3.256,3.256,0,0,1,285.4,560.641Z" transform="translate(-270.099 -537.432)" fill="none" stroke="#fcfcfc" stroke-linecap="round" stroke-linejoin="round" stroke-width="2.5" />
            </g>
            <path id="Union_9" data-name="Union 9" d="M8.034,8.034,0,16.069ZM0,0,8.034,8.034Z" transform="translate(41.582 578.123) rotate(180)" fill="none" stroke="#fcfcfc" stroke-linecap="round" stroke-linejoin="round" stroke-width="2" opacity="0.7" />
            <path id="Union_27" data-name="Union 27" d="M0,14.109v0H0Z" transform="translate(840.484 267.863)" fill="rgba(0,0,0,0)" stroke="#fcfcfc" stroke-linecap="round" stroke-linejoin="round" stroke-width="2.5" opacity="0.7" />
            <path id="Path_1768" data-name="Path 1768" d="M0,11.818a11.819,11.819,0,0,1,23.638,0" transform="translate(45.672 34.834) rotate(-90)" fill="none" stroke="#fcfcfc" stroke-linecap="round" stroke-linejoin="round" stroke-width="2.5" opacity="0.7" />
            <g id="Group_1239" data-name="Group 1239" transform="translate(94.595 384.518)" opacity="0.7">
                <line id="Line_225" data-name="Line 225" x1="11.009" y1="10.326" transform="translate(0 0.34)" fill="none" stroke="#fcfcfc" stroke-linecap="round" stroke-linejoin="round" stroke-width="2.5" />
                <line id="Line_226" data-name="Line 226" y1="11.009" x2="10.327" transform="translate(0.34 0)" fill="none" stroke="#fcfcfc" stroke-linecap="round" stroke-linejoin="round" stroke-width="2.5" />
            </g>
            <g id="Group_1241" data-name="Group 1241" transform="translate(793.314 120.324)" opacity="0.7">
                <path id="Union_4" data-name="Union 4" d="M0,16.921,16.841,0,0,16.921H0Z" transform="translate(0 0)" fill="none" stroke="#fcfcfc" stroke-linecap="round" stroke-linejoin="round" stroke-width="2" />
                <g id="Mask_Group_2" data-name="Mask Group 2" transform="translate(2.072 5.988)" clip-path="url(#clip-path)">
                    <path id="Path_1755" data-name="Path 1755" d="M0,6.926a6.926,6.926,0,0,1,13.853,0" transform="translate(7.189 0) rotate(71)" fill="none" stroke="#fcfcfc" stroke-linecap="round" stroke-linejoin="round" stroke-width="2" />
                </g>
            </g>
            <path id="Union_29" data-name="Union 29" d="M8.035,8.035,0,0ZM0,16.069,8.035,8.035Z" transform="translate(1003.644 751.931)" fill="none" stroke="#fcfcfc" stroke-linecap="round" stroke-linejoin="round" stroke-width="2" opacity="0.7" />
            <path id="Path_1911" data-name="Path 1911" d="M0,0,28.5.319" transform="translate(957.337 99.159)" fill="none" stroke="#fcfcfc" stroke-linecap="round" stroke-width="2.5" opacity="0.7" />
            <path id="Path_1857" data-name="Path 1857" d="M-3760.643,4328.969" transform="translate(3942 -3918.292)" fill="none" stroke="#707070" stroke-width="1" />
            <path id="Union_35" data-name="Union 35" d="M6.842,0l6.842,20.3Zm0,0L0,20.3ZM2.886,12.229h0Z" transform="matrix(0.978, -0.208, 0.208, 0.978, 145.792, 222.97)" fill="none" stroke="#fff" stroke-linejoin="round" stroke-width="2" opacity="0.7" />
            <g id="Group_1259" data-name="Group 1259" transform="translate(934.378 638.512)" opacity="0.9">
                <path id="Path_1862" data-name="Path 1862" d="M-3710.944,4316.935v-9.217s10.02-.029,10.02-8.779-10.02-8.366-10.02-8.366-8.708.085-9.043,8.366" transform="translate(3719.987 -4290.57)" fill="none" stroke="#fff" stroke-linecap="round" stroke-linejoin="round" stroke-width="2.5" />
                <path id="Path_1863" data-name="Path 1863" d="M285.4,560.641a3.256,3.256,0,1,1-3.256-3.256A3.256,3.256,0,0,1,285.4,560.641Z" transform="translate(-273.323 -526.921)" fill="none" stroke="#fcfcfc" stroke-linecap="round" stroke-linejoin="round" stroke-width="2" />
            </g>
            <g id="Group_1260" data-name="Group 1260" transform="matrix(0.966, 0.259, -0.259, 0.966, 308.043, 683.386)" opacity="0.7">
                <path id="Union_33" data-name="Union 33" d="M26.752,18.107A14.58,14.58,0,0,0,18.224,21.9V3.827A14.5,14.5,0,0,1,27.269,0c5.251-.073,9.179,3.826,9.179,3.826s-.013,18.048,0,18.072C32.882,18.743,29.473,17.91,26.752,18.107Zm-18.224,0A14.58,14.58,0,0,0,0,21.9V3.827A14.5,14.5,0,0,1,9.045,0c5.251-.073,9.179,3.826,9.179,3.826s-.013,18.048,0,18.072C14.659,18.743,11.25,17.91,8.528,18.107Z" transform="translate(0 0)" fill="none" stroke="#fff" stroke-linecap="round" stroke-linejoin="round" stroke-width="2" />
                <path id="Path_1866" data-name="Path 1866" d="M0,2.49s5.1-5.6,12.176,0" transform="translate(3 4.017)" fill="none" stroke="#fff" stroke-width="1" />
                <path id="Path_1867" data-name="Path 1867" d="M0,2.49s5.1-5.6,12.176,0" transform="translate(3 7.017)" fill="none" stroke="#fff" stroke-width="1" />
                <path id="Path_1868" data-name="Path 1868" d="M0,2.49s5.1-5.6,12.176,0" transform="translate(3 10.017)" fill="none" stroke="#fff" stroke-width="1" />
            </g>
            <g id="Group_1261" data-name="Group 1261" transform="translate(460.043 96.592) rotate(-14)" opacity="0.7">
                <path id="Union_33-2" data-name="Union 33" d="M31.69,21.45a17.272,17.272,0,0,0-10.1,4.491V4.533S26.083.088,32.3,0,43.176,4.533,43.176,4.533s-.016,21.379,0,21.408C38.953,22.2,34.914,21.217,31.69,21.45Zm-21.587,0A17.272,17.272,0,0,0,0,25.942V4.533S4.5.088,10.715,0,21.588,4.533,21.588,4.533s-.016,21.379,0,21.408C17.365,22.2,13.327,21.217,10.1,21.45Z" transform="translate(0)" fill="none" stroke="#fff" stroke-linecap="round" stroke-linejoin="round" stroke-width="2" />
                <path id="Path_1866-2" data-name="Path 1866" d="M0,2.95s6.045-6.637,14.424,0" transform="translate(3.554 4.758)" fill="none" stroke="#fff" stroke-width="1" />
                <path id="Path_1867-2" data-name="Path 1867" d="M0,2.95s6.045-6.637,14.424,0" transform="translate(3.554 8.312)" fill="none" stroke="#fff" stroke-width="1" />
                <path id="Path_1868-2" data-name="Path 1868" d="M0,2.95s6.045-6.637,14.424,0" transform="translate(3.554 11.865)" fill="none" stroke="#fff" stroke-width="1" />
            </g>
            <path id="Union_34" data-name="Union 34" d="M0,28.43H12.406L6.092,36.41Zm0,0V0h12.4V28.43Z" transform="translate(230.532 61.526) rotate(45)" fill="none" stroke="#fff" stroke-linecap="round" stroke-linejoin="round" stroke-width="2" opacity="0.7" />
            <path id="Union_36" data-name="Union 36" d="M0,28H12.218L6,35.859Zm0,0V0H12.218V28Z" transform="translate(947.591 209.257) rotate(-45)" fill="none" stroke="#fff" stroke-linecap="round" stroke-linejoin="round" stroke-width="2" opacity="0.7" />
            <path id="Union_38" data-name="Union 38" d="M0,28.486V14.571s13.209-2,13.209,6.678c0,6.512-7.429,7.326-11.145,7.326C.826,28.576,0,28.486,0,28.486ZM0,.091S13.209-1.357,13.209,7.326,0,14,0,14V.091Z" transform="translate(941.587 333.41) rotate(-9)" fill="none" stroke="#fff" stroke-linecap="round" stroke-linejoin="round" stroke-width="2.5" opacity="0.9" />
            <g id="Group_1263" data-name="Group 1263" transform="matrix(0.995, 0.105, -0.105, 0.995, 998.055, 460.024)" opacity="0.7">
                <path id="Path_1878" data-name="Path 1878" d="M0,0S-.414,10.444,7.519,10.475s8.156-5.28,8.156-5.28" transform="translate(0 10.074)" fill="none" stroke="#fff" stroke-linecap="round" stroke-linejoin="round" stroke-width="2" />
                <path id="Path_1879" data-name="Path 1879" d="M0,10.475S-.414.03,7.519,0s8.156,5.28,8.156,5.28" transform="translate(0 0)" fill="none" stroke="#fff" stroke-linecap="round" stroke-linejoin="round" stroke-width="2" />
            </g>
            <g id="Group_1264" data-name="Group 1264" transform="matrix(0.966, -0.259, 0.259, 0.966, 116.81, 479.249)">
                <path id="Union_41" data-name="Union 41" d="M0,15.772v-7.7s7.314-1.109,7.314,3.7c0,3.606-4.113,4.056-6.17,4.056C.458,15.822,0,15.772,0,15.772ZM0,.05s7.314-.8,7.314,4.006S0,7.754,0,7.754V.05Z" transform="translate(15.778 0.097)" fill="none" stroke="#fff" stroke-linecap="round" stroke-linejoin="round" stroke-width="2" opacity="0.9" />
                <g id="Group_1264-2" data-name="Group 1264" transform="translate(28.205 0)" opacity="0.9">
                    <path id="Path_1878-2" data-name="Path 1878" d="M0,0S-.322,8.14,5.86,8.164s6.357-4.115,6.357-4.115" transform="translate(0 7.851)" fill="none" stroke="#fff" stroke-linecap="round" stroke-linejoin="round" stroke-width="2" />
                    <path id="Path_1879-2" data-name="Path 1879" d="M0,8.164S-.322.024,5.86,0s6.357,4.115,6.357,4.115" transform="translate(0 0)" fill="none" stroke="#fff" stroke-linecap="round" stroke-linejoin="round" stroke-width="2" />
                </g>
                <path id="Union_43" data-name="Union 43" d="M5.333,0l5.332,15.822Zm0,0L0,15.822ZM2.249,9.531h0Z" transform="translate(0 0.097)" fill="none" stroke="#fff" stroke-linejoin="round" stroke-width="2" opacity="0.9" />
            </g>
            <g id="Group_1265" data-name="Group 1265" transform="translate(53.664 128.006) rotate(1)" opacity="0.7">
                <path id="Path_1862-2" data-name="Path 1862" d="M9.043,26.365V17.148s10.02-.029,10.02-8.779S9.043,0,9.043,0,.335.087,0,8.369" transform="translate(0)" fill="none" stroke="#fff" stroke-linecap="round" stroke-linejoin="round" stroke-width="2.5" />
                <path id="Path_1863-2" data-name="Path 1863" d="M6.513,3.256A3.256,3.256,0,1,1,3.257,0,3.256,3.256,0,0,1,6.513,3.256Z" transform="translate(5.568 30.464)" fill="none" stroke="#fcfcfc" stroke-linecap="round" stroke-linejoin="round" stroke-width="2" />
            </g>
            <line id="Line_356" data-name="Line 356" x2="28.5" y2="0.319" transform="translate(0 662.506)" fill="none" stroke="#fcfcfc" stroke-linecap="round" stroke-linejoin="round" stroke-width="2.5" opacity="0.7" />
            <path id="Path_1888" data-name="Path 1888" d="M301.478,568.677a11.294,11.294,0,1,1-11.293-11.293A11.294,11.294,0,0,1,301.478,568.677Z" transform="translate(216.11 83.657)" fill="none" stroke="#fcfcfc" stroke-linecap="round" stroke-linejoin="round" stroke-width="2" opacity="0.7" />
            <path id="Path_1889" data-name="Path 1889" d="M0,11.818a11.819,11.819,0,0,1,23.638,0" transform="translate(804.105 715.537) rotate(180)" fill="none" stroke="#fcfcfc" stroke-linecap="round" stroke-linejoin="round" stroke-width="2.5" opacity="0.7" />
            <g id="Group_1266" data-name="Group 1266" transform="translate(588.366 723.053)" opacity="0.7">
                <line id="Line_274-2" data-name="Line 274" x2="23.361" transform="translate(0 13.233)" fill="none" stroke="#fcfcfc" stroke-linecap="round" stroke-linejoin="round" stroke-width="2.5" />
                <path id="Path_1757-2" data-name="Path 1757" d="M285.4,560.641a3.256,3.256,0,1,1-3.256-3.256A3.256,3.256,0,0,1,285.4,560.641Z" transform="translate(-270.099 -557.385)" fill="none" stroke="#fcfcfc" stroke-linecap="round" stroke-linejoin="round" stroke-width="2.5" />
                <path id="Path_1758-2" data-name="Path 1758" d="M285.4,560.641a3.256,3.256,0,1,1-3.256-3.256A3.256,3.256,0,0,1,285.4,560.641Z" transform="translate(-270.099 -537.432)" fill="none" stroke="#fcfcfc" stroke-linecap="round" stroke-linejoin="round" stroke-width="2.5" />
            </g>
            <g id="Group_1267" data-name="Group 1267" transform="translate(273.128 144.82)" opacity="0.7">
                <line id="Line_225-2" data-name="Line 225" x1="11.009" y1="10.326" transform="translate(0 0.34)" fill="none" stroke="#fcfcfc" stroke-linecap="round" stroke-linejoin="round" stroke-width="2.5" />
                <line id="Line_226-2" data-name="Line 226" y1="11.009" x2="10.327" transform="translate(0.34 0)" fill="none" stroke="#fcfcfc" stroke-linecap="round" stroke-linejoin="round" stroke-width="2.5" />
            </g>
            <path id="Union_45" data-name="Union 45" d="M0,20.237V10.352S9.384,8.929,9.384,15.1c0,4.626-5.278,5.2-7.917,5.2C.587,20.3,0,20.237,0,20.237ZM0,.064S9.384-.964,9.384,5.2,0,9.949,0,9.949V.064Z" transform="translate(405.21 0)" fill="none" stroke="#fff" stroke-linecap="round" stroke-linejoin="round" stroke-width="2" opacity="0.7" />
            <path id="Path_1892" data-name="Path 1892" d="M353.279,545.419a11.819,11.819,0,0,1,23.638,0" transform="translate(252.109 -394.816)" fill="none" stroke="#fcfcfc" stroke-linecap="round" stroke-linejoin="round" stroke-width="2.5" opacity="0.7" />
            <path id="Path_1893" data-name="Path 1893" d="M301.478,568.677a11.294,11.294,0,1,1-11.293-11.293A11.294,11.294,0,0,1,301.478,568.677Z" transform="translate(588.851 -539.671)" fill="none" stroke="#fcfcfc" stroke-linecap="round" stroke-linejoin="round" stroke-width="2" opacity="0.7" />
            <path id="Union_49" data-name="Union 49" d="M0,28.218H0Zm0,0v0Zm9.489-9.654v0Zm-9.116,0h0Z" transform="translate(887.644 525.98)" fill="rgba(0,0,0,0)" stroke="#fcfcfc" stroke-linecap="round" stroke-linejoin="round" stroke-width="2" opacity="0.7" />
            <g id="Group_1279" data-name="Group 1279" transform="matrix(0.978, 0.208, -0.208, 0.978, 682.405, 585.57)" opacity="0.7">
                <path id="Union_41-2" data-name="Union 41" d="M0,15.772v-7.7s7.314-1.109,7.314,3.7c0,3.606-4.113,4.056-6.17,4.056C.458,15.822,0,15.772,0,15.772ZM0,.05s7.314-.8,7.314,4.006S0,7.754,0,7.754V.05Z" transform="translate(15.778 0.097)" fill="none" stroke="#fff" stroke-linecap="round" stroke-linejoin="round" stroke-width="2" opacity="0.9" />
                <g id="Group_1264-3" data-name="Group 1264" transform="translate(28.205 0)" opacity="0.9">
                    <path id="Path_1878-3" data-name="Path 1878" d="M0,0S-.322,8.14,5.86,8.164s6.357-4.115,6.357-4.115" transform="translate(0 7.851)" fill="none" stroke="#fff" stroke-linecap="round" stroke-linejoin="round" stroke-width="2" />
                    <path id="Path_1879-3" data-name="Path 1879" d="M0,8.164S-.322.024,5.86,0s6.357,4.115,6.357,4.115" transform="translate(0 0)" fill="none" stroke="#fff" stroke-linecap="round" stroke-linejoin="round" stroke-width="2" />
                </g>
                <path id="Union_43-2" data-name="Union 43" d="M5.333,0l5.332,15.822Zm0,0L0,15.822ZM2.249,9.531h0Z" transform="translate(0 0.097)" fill="none" stroke="#fff" stroke-linejoin="round" stroke-width="2" opacity="0.9" />
            </g>
            <g id="Group_1280" data-name="Group 1280" transform="translate(560.005 233.777)" opacity="0.7">
                <path id="Path_1862-3" data-name="Path 1862" d="M-3710.944,4316.935v-9.217s10.02-.029,10.02-8.779-10.02-8.366-10.02-8.366-8.708.085-9.043,8.366" transform="translate(3719.987 -4290.57)" fill="none" stroke="#fff" stroke-linecap="round" stroke-linejoin="round" stroke-width="2.5" />
                <path id="Path_1863-3" data-name="Path 1863" d="M285.4,560.641a3.256,3.256,0,1,1-3.256-3.256A3.256,3.256,0,0,1,285.4,560.641Z" transform="translate(-273.323 -526.921)" fill="none" stroke="#fcfcfc" stroke-linecap="round" stroke-linejoin="round" stroke-width="2" />
            </g>
            <g id="Group_1281" data-name="Group 1281" transform="matrix(0.978, 0.208, -0.208, 0.978, 679.314, 327.351)" opacity="0.7">
                <path id="Union_33-3" data-name="Union 33" d="M31.69,21.45a17.272,17.272,0,0,0-10.1,4.491V4.533S26.083.088,32.3,0,43.176,4.533,43.176,4.533s-.016,21.379,0,21.408C38.953,22.2,34.914,21.217,31.69,21.45Zm-21.587,0A17.272,17.272,0,0,0,0,25.942V4.533S4.5.088,10.715,0,21.588,4.533,21.588,4.533s-.016,21.379,0,21.408C17.365,22.2,13.327,21.217,10.1,21.45Z" transform="translate(0 0)" fill="none" stroke="#fff" stroke-linecap="round" stroke-linejoin="round" stroke-width="2" />
                <path id="Path_1866-3" data-name="Path 1866" d="M0,2.95s6.045-6.637,14.424,0" transform="translate(3.554 4.758)" fill="none" stroke="#fff" stroke-width="1" />
                <path id="Path_1867-3" data-name="Path 1867" d="M0,2.95s6.045-6.637,14.424,0" transform="translate(3.554 8.312)" fill="none" stroke="#fff" stroke-width="1" />
                <path id="Path_1868-3" data-name="Path 1868" d="M0,2.95s6.045-6.637,14.424,0" transform="translate(3.554 11.865)" fill="none" stroke="#fff" stroke-width="1" />
            </g>
            <g id="Group_1283" data-name="Group 1283" transform="translate(700.821 204.331)" opacity="0.9">
                <line id="Line_274-3" data-name="Line 274" x2="23.361" transform="translate(0 13.233)" fill="none" stroke="#fcfcfc" stroke-linecap="round" stroke-linejoin="round" stroke-width="2.5" />
                <path id="Path_1757-3" data-name="Path 1757" d="M285.4,560.641a3.256,3.256,0,1,1-3.256-3.256A3.256,3.256,0,0,1,285.4,560.641Z" transform="translate(-270.099 -557.385)" fill="none" stroke="#fcfcfc" stroke-linecap="round" stroke-linejoin="round" stroke-width="2.5" />
                <path id="Path_1758-3" data-name="Path 1758" d="M285.4,560.641a3.256,3.256,0,1,1-3.256-3.256A3.256,3.256,0,0,1,285.4,560.641Z" transform="translate(-270.099 -537.432)" fill="none" stroke="#fcfcfc" stroke-linecap="round" stroke-linejoin="round" stroke-width="2.5" />
            </g>
            <path id="Union_54" data-name="Union 54" d="M0,28.218H0Zm0,0v0Zm9.489-9.654v0Zm-9.116,0h0Z" transform="translate(277.739 410.222)" fill="rgba(0,0,0,0)" stroke="#fcfcfc" stroke-linecap="round" stroke-linejoin="round" stroke-width="2" opacity="0.7" />
            <path id="Path_1908" data-name="Path 1908" d="M0,0A11.819,11.819,0,0,0,11.819,11.818,11.818,11.818,0,0,0,23.638,0" transform="translate(359.301 240.14) rotate(-90)" fill="none" stroke="#fcfcfc" stroke-linecap="round" stroke-linejoin="round" stroke-width="2.5" opacity="0.7" />
            <path id="Union_55" data-name="Union 55" d="M12.946,12.946h0v0h0v0Z" transform="translate(678.601 449.076)" fill="none" stroke="#fcfcfc" stroke-linecap="round" stroke-linejoin="round" stroke-width="3" opacity="0.7" />
            <path id="Union_56" data-name="Union 56" d="M8.035,8.035,0,0ZM0,16.069,8.035,8.035Z" transform="translate(1003.644 751.931)" fill="none" stroke="#fcfcfc" stroke-linecap="round" stroke-linejoin="round" stroke-width="2" opacity="0.7" />
            <path id="Union_58" data-name="Union 58" d="M0,28H12.218L6,35.859Zm0,0V0H12.218V28Z" transform="translate(499.48 502.606) rotate(-45)" fill="none" stroke="#fff" stroke-linecap="round" stroke-linejoin="round" stroke-width="2" opacity="0.7" />
            <g id="Group_1284" data-name="Group 1284" transform="translate(529.691 381.944) rotate(19)" opacity="0.9">
                <line id="Line_225-3" data-name="Line 225" x1="11.009" y1="10.326" transform="translate(0 0.34)" fill="none" stroke="#fcfcfc" stroke-linecap="round" stroke-linejoin="round" stroke-width="2.5" />
                <line id="Line_226-3" data-name="Line 226" y1="11.009" x2="10.327" transform="translate(0.34 0)" fill="none" stroke="#fcfcfc" stroke-linecap="round" stroke-linejoin="round" stroke-width="2.5" />
            </g>
            <g id="Group_1285" data-name="Group 1285" transform="translate(367.953 553.813)" opacity="0.7">
                <path id="Union_4-2" data-name="Union 4" d="M0,0,16.841,16.921,0,0H0Z" transform="translate(22.499 16.921) rotate(180)" fill="none" stroke="#fcfcfc" stroke-linecap="round" stroke-linejoin="round" stroke-width="2" />
                <g id="Mask_Group_2-2" data-name="Mask Group 2" transform="translate(4.461 5.988)" clip-path="url(#clip-path-2)">
                    <path id="Path_1755-2" data-name="Path 1755" d="M0,0A6.927,6.927,0,0,0,6.926,6.926,6.926,6.926,0,0,0,13.853,0" transform="translate(15.326 2.255) rotate(109)" fill="none" stroke="#fcfcfc" stroke-linecap="round" stroke-linejoin="round" stroke-width="2" />
                </g>
            </g>
            <line id="Line_378" data-name="Line 378" x2="28.5" y2="0.319" transform="translate(382.028 363.576)" fill="none" stroke="#fcfcfc" stroke-linecap="round" stroke-linejoin="round" stroke-width="2.5" opacity="0.7" />
            <path id="Path_1912" data-name="Path 1912" d="M296.131,566a8.62,8.62,0,1,1-8.62-8.619A8.62,8.62,0,0,1,296.131,566Z" transform="translate(548.214 -149.312)" fill="none" stroke="#fcfcfc" stroke-linecap="round" stroke-linejoin="round" stroke-width="2" opacity="0.7" />
            <path id="Union_59" data-name="Union 59" d="M12.946,12.946h0v0h0v0Z" transform="translate(163.398 589.424)" fill="none" stroke="#fcfcfc" stroke-linecap="round" stroke-linejoin="round" stroke-width="3" opacity="0.9" />
            <path id="Path_1913" data-name="Path 1913" d="M0,0A11.819,11.819,0,0,0,11.819,11.818,11.818,11.818,0,0,0,23.638,0" transform="translate(148.629 739.628) rotate(180)" fill="none" stroke="#fcfcfc" stroke-linecap="round" stroke-linejoin="round" stroke-width="2.5" opacity="0.7" />
        </g>
    </svg>

</svg>
