<svg id="Group_1268" data-name="Group 1268" xmlns="http://www.w3.org/2000/svg" xmlns:xlink="http://www.w3.org/1999/xlink" width="202.624" height="90.706" viewBox="0 0 202.624 90.706">
    <defs>
        <linearGradient id="linear-gradient" x1="0.025" y1="0.499" x2="2.79" y2="0.511" gradientUnits="objectBoundingBox">
            <stop offset="0.02" stop-color="#7b428d" />
            <stop offset="0.585" stop-color="#009cbf" />
            <stop offset="1" stop-color="#7b428d" />
        </linearGradient>
        <linearGradient id="linear-gradient-2" x1="-0.495" y1="0.49" x2="0.805" y2="0.502" xlink:href="#linear-gradient" />
    </defs>
    <g id="Group_1256" data-name="Group 1256" transform="translate(0.381 78.737)">
        <path id="Path_1832" data-name="Path 1832" d="M14.164,43.7h2l5.825,7.748V43.7h1.99V54.722h-1.99l-5.825-7.748v7.748h-2Z" transform="translate(-14.164 -42.947)" fill="#2e2e2d" />
        <path id="Path_1833" data-name="Path 1833" d="M20.758,45.53v2.791h5.692v1.83H20.758v4.57H18.752V43.7h8.291V45.53Z" transform="translate(-6.532 -42.947)" fill="#2e2e2d" />
        <path id="Path_1834" data-name="Path 1834" d="M24.521,45.53v2.663h5.694v1.827H24.521v2.874h6.288v1.827H22.515V43.7h8.294V45.53Z" transform="translate(-0.273 -42.947)" fill="#2e2e2d" />
        <path id="Path_1835" data-name="Path 1835" d="M33.081,54.722l-2.6-3.7H28.351v3.7H26.345V43.7h4.794c2.36,0,4.123,1.508,4.123,3.657A3.578,3.578,0,0,1,32.6,50.809l2.759,3.913Zm-4.73-5.551h2.565c1.364,0,2.309-.69,2.309-1.811s-.946-1.814-2.309-1.814H28.351Z" transform="translate(6.098 -42.947)" fill="#2e2e2d" />
        <path id="Path_1836" data-name="Path 1836" d="M31.908,49.324a5.783,5.783,0,1,1,5.79,5.713A5.81,5.81,0,0,1,31.908,49.324Zm9.511,0A3.74,3.74,0,1,0,37.7,53.208,3.838,3.838,0,0,0,41.419,49.324Z" transform="translate(15.352 -43.068)" fill="#2e2e2d" />
        <path id="Path_1837" data-name="Path 1837" d="M44.515,47.863V53.14H42.621V48.247a1.769,1.769,0,0,0-1.747-1.923A1.963,1.963,0,0,0,38.869,47.9V53.14H36.911V44.846h1.958v1.108a3.085,3.085,0,0,1,2.568-1.3A3.018,3.018,0,0,1,44.515,47.863Z" transform="translate(23.674 -41.365)" fill="#2e2e2d" />
        <path id="Path_1838" data-name="Path 1838" d="M40.554,43.63h1.958V54.843H40.554Z" transform="translate(29.734 -43.068)" fill="#2e2e2d" />
        <path id="Path_1839" data-name="Path 1839" d="M42.047,44.527a1.115,1.115,0,1,1,1.124,1.124A1.138,1.138,0,0,1,42.047,44.527Zm.128,2.373h1.958v8.294H42.175Z" transform="translate(32.218 -43.419)" fill="#2e2e2d" />
        <path id="Path_1840" data-name="Path 1840" d="M51.241,47.863V53.14H49.347V48.247a1.77,1.77,0,0,0-1.75-1.923,1.96,1.96,0,0,0-2,1.571V53.14H43.637V44.846h1.958v1.108a3.084,3.084,0,0,1,2.565-1.3A3.018,3.018,0,0,1,51.241,47.863Z" transform="translate(34.862 -41.365)" fill="#2e2e2d" />
        <path id="Path_1841" data-name="Path 1841" d="M53.575,50.767l1.236,1.281a5.014,5.014,0,0,1-3.369,1.286,4.272,4.272,0,0,1-4.331-4.365,4.186,4.186,0,0,1,4.219-4.315c2.565,0,4.059,1.942,4.059,5H49.133A2.308,2.308,0,0,0,51.426,51.6,3.264,3.264,0,0,0,53.575,50.767Zm-4.427-2.6h4.363a2.061,2.061,0,0,0-2.1-1.779A2.292,2.292,0,0,0,49.149,48.167Z" transform="translate(40.641 -41.365)" fill="#2e2e2d" />
        <path id="Path_1842" data-name="Path 1842" d="M60.649,52.735H55.325l-.836,1.987H52.259L56.864,43.7h2.229l4.6,11.019H61.482ZM59.927,51l-1.942-4.634L56.046,51Z" transform="translate(49.205 -42.947)" fill="#2e2e2d" />
        <path id="Path_1843" data-name="Path 1843" d="M56.859,52.082l.884-1.364a4.714,4.714,0,0,0,2.775.962c.786,0,1.332-.338,1.332-.85,0-.642-.722-.85-1.67-1.108-1.8-.463-2.935-.977-2.951-2.453,0-1.555,1.284-2.616,3.127-2.616a5.9,5.9,0,0,1,3.177,1l-.818,1.428a4.571,4.571,0,0,0-2.36-.754c-.69,0-1.217.272-1.217.738,0,.527.431.69,1.7,1.057,1.4.386,2.9.868,2.9,2.6,0,1.587-1.316,2.615-3.257,2.615A5.956,5.956,0,0,1,56.859,52.082Z" transform="translate(56.856 -41.365)" fill="#2e2e2d" />
        <path id="Path_1844" data-name="Path 1844" d="M59.864,52.082l.882-1.364a4.714,4.714,0,0,0,2.775.962c.786,0,1.332-.338,1.332-.85,0-.642-.722-.85-1.67-1.108-1.8-.463-2.932-.977-2.948-2.453,0-1.555,1.281-2.616,3.127-2.616a5.9,5.9,0,0,1,3.175,1l-.818,1.428a4.555,4.555,0,0,0-2.357-.754c-.69,0-1.22.272-1.22.738,0,.527.434.69,1.7,1.057,1.393.386,2.9.868,2.9,2.6,0,1.587-1.316,2.615-3.257,2.615A5.945,5.945,0,0,1,59.864,52.082Z" transform="translate(61.855 -41.365)" fill="#2e2e2d" />
        <path id="Path_1845" data-name="Path 1845" d="M69.375,50.767l1.233,1.281a5.012,5.012,0,0,1-3.367,1.286,4.271,4.271,0,0,1-4.331-4.365,4.186,4.186,0,0,1,4.216-4.315c2.568,0,4.059,1.942,4.059,5H64.933A2.308,2.308,0,0,0,67.226,51.6,3.269,3.269,0,0,0,69.375,50.767Zm-4.429-2.6h4.363a2.058,2.058,0,0,0-2.1-1.779A2.3,2.3,0,0,0,64.946,48.167Z" transform="translate(66.924 -41.365)" fill="#2e2e2d" />
        <path id="Path_1846" data-name="Path 1846" d="M66.439,52.082l.884-1.364a4.708,4.708,0,0,0,2.775.962c.783,0,1.329-.338,1.329-.85,0-.642-.722-.85-1.667-1.108-1.8-.463-2.935-.977-2.951-2.453,0-1.555,1.281-2.616,3.127-2.616a5.908,5.908,0,0,1,3.177,1l-.82,1.428a4.555,4.555,0,0,0-2.357-.754c-.69,0-1.22.272-1.22.738,0,.527.434.69,1.7,1.057,1.4.386,2.9.868,2.9,2.6,0,1.587-1.316,2.615-3.257,2.615A5.956,5.956,0,0,1,66.439,52.082Z" transform="translate(72.792 -41.365)" fill="#2e2e2d" />
        <path id="Path_1847" data-name="Path 1847" d="M69.444,52.082l.882-1.364a4.714,4.714,0,0,0,2.775.962c.786,0,1.332-.338,1.332-.85,0-.642-.722-.85-1.67-1.108-1.8-.463-2.935-.977-2.951-2.453,0-1.555,1.284-2.616,3.13-2.616a5.9,5.9,0,0,1,3.175,1L75.3,47.078a4.555,4.555,0,0,0-2.357-.754c-.692,0-1.22.272-1.22.738,0,.527.431.69,1.7,1.057,1.4.386,2.9.868,2.9,2.6,0,1.587-1.316,2.615-3.255,2.615A5.945,5.945,0,0,1,69.444,52.082Z" transform="translate(77.791 -41.365)" fill="#2e2e2d" />
        <path id="Path_1848" data-name="Path 1848" d="M85.278,47.863V53.14h-1.91V48.183a1.671,1.671,0,0,0-1.6-1.859,1.7,1.7,0,0,0-1.814,1.731V53.14H78.044V48.183a1.675,1.675,0,0,0-1.622-1.859,1.706,1.706,0,0,0-1.811,1.731V53.14H72.653V44.846h1.958V45.97a2.525,2.525,0,0,1,2.309-1.316,2.906,2.906,0,0,1,2.647,1.574,2.794,2.794,0,0,1,2.679-1.574A3.026,3.026,0,0,1,85.278,47.863Z" transform="translate(83.129 -41.365)" fill="#2e2e2d" />
        <path id="Path_1849" data-name="Path 1849" d="M84.476,50.767l1.236,1.281a5.014,5.014,0,0,1-3.369,1.286,4.271,4.271,0,0,1-4.331-4.365,4.186,4.186,0,0,1,4.219-4.315c2.565,0,4.059,1.942,4.059,5H80.034A2.308,2.308,0,0,0,82.327,51.6,3.269,3.269,0,0,0,84.476,50.767Zm-4.427-2.6h4.363a2.063,2.063,0,0,0-2.1-1.779A2.292,2.292,0,0,0,80.05,48.167Z" transform="translate(92.043 -41.365)" fill="#2e2e2d" />
        <path id="Path_1850" data-name="Path 1850" d="M89.355,47.863V53.14H87.461V48.247a1.769,1.769,0,0,0-1.747-1.923A1.961,1.961,0,0,0,83.709,47.9V53.14H81.751V44.846h1.958v1.108a3.085,3.085,0,0,1,2.568-1.3A3.018,3.018,0,0,1,89.355,47.863Z" transform="translate(98.263 -41.365)" fill="#2e2e2d" />
        <path id="Path_1851" data-name="Path 1851" d="M90.473,53.976a2.806,2.806,0,0,1-1.763.661,2.273,2.273,0,0,1-2.344-2.392V47.77h-1.2V46.148h1.2V43.871h1.91v2.277h1.878V47.77H88.276v4.235a.872.872,0,0,0,.82.961,1.191,1.191,0,0,0,.818-.3Z" transform="translate(103.942 -42.667)" fill="#2e2e2d" />
        <path id="Path_1852" data-name="Path 1852" d="M87.513,52.082l.884-1.364a4.706,4.706,0,0,0,2.773.962c.786,0,1.332-.338,1.332-.85,0-.642-.722-.85-1.667-1.108-1.8-.463-2.935-.977-2.951-2.453,0-1.555,1.281-2.616,3.127-2.616a5.908,5.908,0,0,1,3.177,1l-.82,1.428a4.555,4.555,0,0,0-2.357-.754c-.69,0-1.22.272-1.22.738,0,.527.434.69,1.7,1.057,1.4.386,2.9.868,2.9,2.6,0,1.587-1.316,2.615-3.257,2.615A5.95,5.95,0,0,1,87.513,52.082Z" transform="translate(107.847 -41.365)" fill="#2e2e2d" />
    </g>
    <g id="Group_1257" data-name="Group 1257">
        <path id="Path_1853" data-name="Path 1853" d="M45.535,13.9c-.123,0-.242,0-.365,0A31.494,31.494,0,0,0,14.029,45.325h-.008V76.916H26.782V45.628h.005A18.743,18.743,0,0,1,45.314,26.67c.075,0,.146,0,.218,0A18.764,18.764,0,0,1,64.264,45.042l-.013,31.82H77.033V45.053h.005A31.546,31.546,0,0,0,45.535,13.9Z" transform="translate(-14.021 -13.779)" fill="url(#linear-gradient)" />
        <path id="Path_1854" data-name="Path 1854" d="M142.066,13.857a31.409,31.409,0,0,0-22.727,9.7l-34.8,34.768A18.57,18.57,0,0,1,71.018,64.1a18.737,18.737,0,1,1,0-37.475,18.57,18.57,0,0,1,13.517,5.772l10.592,10.7,9.026-9.024L93.746,23.557a31.5,31.5,0,1,0,0,43.606l34.8-34.768a18.737,18.737,0,1,1,0,25.931L118.073,47.744l-9.144,8.9,10.409,10.515a31.494,31.494,0,0,0,41.494,3.5v6.288h12.683s.051-31.005.051-31.591A31.5,31.5,0,0,0,142.066,13.857Z" transform="translate(28.392 -13.857)" fill="url(#linear-gradient-2)" />
    </g>
</svg>
