<svg xmlns="http://www.w3.org/2000/svg" width="26" height="16.714" viewBox="0 0 26 16.714">
    <path id="Path_1326" data-name="Path 1326" d="M25.71,98.721a15.5,15.5,0,0,0-5.463-5.339,14.029,14.029,0,0,0-14.494,0A15.492,15.492,0,0,0,.29,98.721a1.873,1.873,0,0,0,0,2,15.489,15.489,0,0,0,5.463,5.339,14.053,14.053,0,0,0,14.494.007,15.393,15.393,0,0,0,5.463-5.346,1.873,1.873,0,0,0,0-2ZM9.888,94.753A4.245,4.245,0,0,1,13,93.454a.7.7,0,1,1,0,1.393,3.022,3.022,0,0,0-3.018,3.018.7.7,0,1,1-1.393,0A4.246,4.246,0,0,1,9.888,94.753ZM19.3,104.46a12.154,12.154,0,0,1-12.608,0,14.975,14.975,0,0,1-4.839-4.737A14.26,14.26,0,0,1,7.385,94.6,6.34,6.34,0,0,0,6.5,97.865a6.26,6.26,0,0,0,1.908,4.592A6.259,6.259,0,0,0,13,104.365a6.261,6.261,0,0,0,4.592-1.908A6.259,6.259,0,0,0,19.5,97.865a6.34,6.34,0,0,0-.885-3.264,14.261,14.261,0,0,1,5.528,5.122A14.971,14.971,0,0,1,19.3,104.46Z" transform="translate(0 -91.365)" fill="#bf4612" />
</svg>
