<svg xmlns="http://www.w3.org/2000/svg" width="100%" height="100%" viewBox="0 0 45.199 51.937">
    <path id="pause" d="M13.885,80.937H4.628c-2.555,0-4.628-2.4-4.628-5.35V36.35C0,33.4,2.073,31,4.628,31h9.257c2.555,0,4.628,2.4,4.628,5.35V75.587C18.514,78.541,16.441,80.937,13.885,80.937ZM43.2,75.587V36.35C43.2,33.4,41.125,31,38.57,31H29.313c-2.555,0-4.628,2.4-4.628,5.35V75.587c0,2.954,2.073,5.35,4.628,5.35H38.57C41.125,80.937,43.2,78.541,43.2,75.587Z" transform="translate(1 -30)" fill="#fae3bf" stroke="#bf4612" stroke-width="2" />
</svg>
