<svg xmlns="http://www.w3.org/2000/svg" width="85.771" height="54.415" viewBox="0 0 85.771 54.415">
    <g id="book-hand" transform="translate(0.999 3.425)">
        <path id="Union_33" data-name="Union 33" d="M61.488,41.617a33.509,33.509,0,0,0-19.6,8.715V8.795S50.607.169,62.675,0s21.1,8.793,21.1,8.793-.03,41.48,0,41.537C75.577,43.079,67.742,41.164,61.488,41.617Zm-41.885,0A33.513,33.513,0,0,0,0,50.332V8.795S8.722.169,20.79,0s21.1,8.793,21.1,8.793-.03,41.48,0,41.537C33.692,43.079,25.857,41.164,19.6,41.617Z" transform="translate(0.001 -0.342)" fill="#b5cdcd" stroke="#016060" stroke-linecap="round" stroke-linejoin="round" stroke-width="2" />
        <path id="Path_1866" data-name="Path 1866" d="M0,5.723s11.729-12.877,27.985,0" transform="translate(6.896 8.89)" fill="none" stroke="#016060" stroke-width="2" />
        <path id="Path_1867" data-name="Path 1867" d="M0,5.723s11.729-12.877,27.985,0" transform="translate(6.896 15.785)" fill="none" stroke="#016060" stroke-width="2" />
        <path id="Path_1868" data-name="Path 1868" d="M0,5.723s11.729-12.877,27.985,0" transform="translate(6.896 22.68)" fill="none" stroke="#016060" stroke-width="2" />
        <path id="Path_1919" data-name="Path 1919" d="M-3798.242,4422.142s6.942-13.6,17.51-14.4a28.882,28.882,0,0,1,11.011.866c2.755.824,8.652-3.934,9.1-7.43v-25.714s-3.535-5.557-19.1-5.329c-10.839.159-18.516,10.865-18.516,10.865Z" transform="translate(3840.129 -4372.548)" fill="#b5cdcd" stroke="#016060" stroke-linecap="round" stroke-linejoin="round" stroke-width="2" />
        <path id="Path_1920" data-name="Path 1920" d="M4.106,9.435S1.7,4.62,0,3.86c0,0,1.544-.117,3.832-.513C6.54,2.88,10.539,1.871,12.308,0c-.041.039,0,1.917,0,1.917" transform="translate(67.17 25.975)" fill="none" stroke="#016060" stroke-linecap="round" stroke-linejoin="round" stroke-width="2" />
    </g>
</svg>
