<svg xmlns="http://www.w3.org/2000/svg" width="91" height="79.096" viewBox="0 0 91 79.096">
    <g id="Group_1295" data-name="Group 1295" transform="translate(-786 -309)">
        <g id="Keyboard_icon" data-name="Keyboard icon" transform="translate(685 -184)">
            <g id="Rectangle_1593" data-name="Rectangle 1593" transform="translate(101 493)" fill="#be7ebe" stroke="#892e89" stroke-width="1.8">
                <rect width="27" height="27" rx="6" stroke="none" />
                <rect x="0.9" y="0.9" width="25.2" height="25.2" rx="5.1" fill="none" />
            </g>
            <rect id="Rectangle_1596" data-name="Rectangle 1596" width="23" height="23" rx="4" transform="translate(103 495)" fill="#e6cce6" />
            <text id="_1" data-name="1" transform="translate(115 511)" fill="#892e89" font-size="13" font-family="Muli-Bold, Muli" font-weight="700"><tspan x="-3.9" y="0">1</tspan></text>
            <g id="Rectangle_1597" data-name="Rectangle 1597" transform="translate(133 493)" fill="#be7ebe" stroke="#892e89" stroke-width="1.8">
                <rect width="27" height="27" rx="6" stroke="none" />
                <rect x="0.9" y="0.9" width="25.2" height="25.2" rx="5.1" fill="none" />
            </g>
            <rect id="Rectangle_1598" data-name="Rectangle 1598" width="23" height="23" rx="4" transform="translate(135 495)" fill="#e6cce6" />
            <text id="_2" data-name="2" transform="translate(146 511)" fill="#892e89" font-size="13" font-family="Muli-Bold, Muli" font-weight="700"><tspan x="-3.907" y="0">2</tspan></text>
            <g id="Rectangle_1599" data-name="Rectangle 1599" transform="translate(164 493)" fill="#be7ebe" stroke="#892e89" stroke-width="1.8">
                <rect width="28" height="27" rx="6" stroke="none" />
                <rect x="0.9" y="0.9" width="26.2" height="25.2" rx="5.1" fill="none" />
            </g>
            <rect id="Rectangle_1600" data-name="Rectangle 1600" width="24" height="23" rx="4" transform="translate(166 495)" fill="#e6cce6" />
            <text id="_3" data-name="3" transform="translate(178 511)" fill="#892e89" font-size="13" font-family="Muli-Bold, Muli" font-weight="700"><tspan x="-3.9" y="0">3</tspan></text>
        </g>
        <g id="tap_hand" data-name="tap hand" transform="matrix(0.966, -0.259, 0.259, 0.966, 815.389, 310.393)">
            <path id="Path_1773" data-name="Path 1773" d="M60.035,45.349a5.43,5.43,0,0,0-4.379-.957c-.195-2.636-1.084-5.225-4.461-5.569a6.584,6.584,0,0,0-3.424.477c-.919-2.941-2.922-3.673-4.676-3.673a12.641,12.641,0,0,0-3.2.377V29.312c0-4.173-1.927-7.472-5.426-7.472s-5.426,3.3-5.426,7.472v16.9a14.678,14.678,0,0,0-1.572-.083c-2,.029-4.481,1.08-4.981,5.893-.017.138-.426,3.428-.493,7.784-.091,5.983.971,10.967,3.069,14.413a21.944,21.944,0,0,0,9.445,8.721,21.067,21.067,0,0,0,8.963,1.671,21.059,21.059,0,0,0,9.939-2.322c.729-.368,9.115-4.923,9.115-19.967,0-4.917-.081-7.111-.322-11.209C62.036,48.272,61.348,46.439,60.035,45.349Zm-6.325.489C57.1,46.27,53.711,42.019,53.711,45.838Z" transform="translate(-21.988 -4.316)" fill="#e6cce6" />
            <path id="Path_1771" data-name="Path 1771" d="M60.035,45.349a5.43,5.43,0,0,0-4.379-.957c-.195-2.636-1.084-5.225-4.461-5.569a6.584,6.584,0,0,0-3.424.477c-.919-2.941-2.922-3.673-4.676-3.673a12.641,12.641,0,0,0-3.2.377V26.312c0-4.173-1.927-6.472-5.426-6.472s-5.426,2.3-5.426,6.472v19.9a14.678,14.678,0,0,0-1.572-.083c-2,.029-4.481,1.08-4.981,5.893-.017.138-.426,3.428-.493,7.784-.091,5.983.971,10.967,3.069,14.413a21.944,21.944,0,0,0,9.445,8.721,21.067,21.067,0,0,0,8.963,1.671,21.059,21.059,0,0,0,9.939-2.322c.729-.368,9.115-4.923,9.115-19.967,0-4.917-.081-7.111-.322-11.209C62.036,48.272,61.348,46.439,60.035,45.349ZM52.539,80.4l-.074.04a19.184,19.184,0,0,1-8.993,2.072,19.314,19.314,0,0,1-8.117-1.474L35.267,81a20.176,20.176,0,0,1-8.521-7.911c-1.86-3.053-2.838-7.759-2.755-13.248.064-4.23.471-7.51.478-7.567.369-3.553,1.811-4.029,3.027-4.047a12.111,12.111,0,0,1,1.544.091V60.18h2V26.312c0-3.878,1.833-4.375,3.429-4.375s3.43.5,3.43,4.375v20.8h2V38.179a10.105,10.105,0,0,1,3.2-.455c.873,0,3.191,0,3.191,5.519V51.38h2V43.243a17.085,17.085,0,0,0-.1-1.824A4.319,4.319,0,0,1,51,40.911c1.672.169,2.708,1.054,2.708,4.928v8.553h2V46.5a3.729,3.729,0,0,1,3.088.491c.824.684,1.286,2.075,1.414,4.251.239,4.049.319,6.218.319,11.079C60.529,76.3,52.862,80.245,52.539,80.4Z" transform="translate(-21.988 -4.169)" fill="#892e89" />
        </g>
    </g>
</svg>
